<?xml version="1.0" encoding="UTF-8" standalone="no"?>
<!DOCTYPE svg PUBLIC "-//W3C//DTD SVG 1.1//EN"
"http://www.w3.org/Graphics/SVG/1.1/DTD/svg11.dtd">


<!-- Page 1 -->
<svg x="0" y="0" width="974" height="1237" viewBox="0 0 974 1237" version="1.1" xmlns="http://www.w3.org/2000/svg" xmlns:xlink="http://www.w3.org/1999/xlink"
style="display: block;margin-left: auto;margin-right: auto;">
<defs>

<style type="text/css"><![CDATA[

.g4_1{
fill: none;
stroke: #040503;
stroke-width: 1;
stroke-linecap: butt;
stroke-linejoin: miter;
}
.g2_1{
fill: #BEBDB9;
}
.g3_1{
fill: #040503;
}
.g1_1{
fill: #D4D3D3;
}

.s1_1{
font-size: 18.33px;
font-family: DINNextLTW04-Regular_24;
fill: #040503;
}
.s2_1{
font-size: 18.33px;
font-family: DINNextLTW04-Regular_2j;
fill: #040503;
}

]]></style>

</defs>
<path d="M0,0
L0,1237
L974,1237
L974,0 Z " 
fill="#FFFFFF" stroke="none" />
<path d="M957,1223l-946,0L11,13l946,0l0,1210Z" class="g1_1" />
<path d="M0,1237l974,0L974,0L0,0L0,1237Z" class="g2_1" />
<path d="M734.7,150.6l4.7,0c2.6,0,6.6,-0.2,6.6,-4.9c0,-4.4,-3.7,-4.4,-5.8,-4.4l-5.5,0Zm-3.9,-12.5l9.5,0c3.5,0,5.8,0.2,7.8,2.2c1.4,1.5,2,3.4,2,5.6c0,2.1,-0.7,4,-2.2,5.5c-1.5,1.5,-3.5,2.5,-8.6,2.5l-4.6,0l0,12.6l-3.9,0Z" class="g3_1" />
<path d="M760.4,156.8c-1.5,0,-7.2,0,-7.2,4c0,1.3,0.8,3.4,4.1,3.4c1.9,0,3.3,-0.7,4.3,-2.1c0.8,-1.3,0.8,-2.4,0.9,-5.2c-0.7,-0.1,-1.2,-0.1,-2.1,-0.1m2.5,9.7c-0.3,-1,-0.3,-1.9,-0.3,-2.9c-1.8,3.2,-4.5,3.6,-6.1,3.6c-4.6,0,-7,-2.6,-7,-5.9c0,-1.6,0.5,-4.1,3.5,-5.8c2.1,-1.2,5.2,-1.3,6.8,-1.3c1,0,1.6,0.1,2.7,0.1c0,-2.4,0,-3.5,-0.7,-4.3c-0.8,-1,-2.4,-1.3,-3.4,-1.3c-3.8,0,-4,2.5,-4,3.3l-3.7,0c0.1,-1,0.2,-2.4,1.4,-3.7c1.5,-1.7,4.2,-2.2,6.3,-2.2c2.9,0,6,0.9,7.1,3c0.6,1.1,0.6,2.1,0.6,3l-0.1,9.5c0,0.3,0,2.9,0.3,4.9Z" class="g3_1" />
<path d="M769,138l4,0l0,28l-4,0l0,-28Z" class="g3_1" />
<path d="M786.5,156.8c-1.5,0,-7.2,0,-7.2,4c0,1.3,0.8,3.4,4.1,3.4c1.9,0,3.4,-0.7,4.3,-2.1c0.8,-1.3,0.8,-2.4,0.9,-5.2c-0.7,-0.1,-1.2,-0.1,-2.1,-0.1m2.5,9.7c-0.2,-1,-0.3,-1.9,-0.3,-2.9c-1.8,3.2,-4.5,3.6,-6.1,3.6c-4.6,0,-7,-2.6,-7,-5.9c0,-1.6,0.6,-4.1,3.5,-5.8c2.1,-1.2,5.3,-1.3,6.8,-1.3c1,0,1.6,0.1,2.7,0.1c0,-2.4,0,-3.5,-0.7,-4.3c-0.8,-1,-2.4,-1.3,-3.4,-1.3c-3.8,0,-4,2.5,-4,3.3l-3.7,0c0.1,-1,0.2,-2.4,1.4,-3.7c1.5,-1.7,4.3,-2.2,6.3,-2.2c2.9,0,6,0.9,7.1,3c0.6,1.1,0.6,2.1,0.6,3l-0.1,9.5c0,0.3,0,2.9,0.3,4.9Z" class="g3_1" />
<path d="M795.6,149l-0.1,-2.3l3.7,0l0.1,3.2c0.4,-0.8,1.8,-3.6,6.3,-3.6c1.8,0,7.2,0.7,7.2,6.8l0,13.4l-3.8,0l0,-12.6c0,-1.3,-0.2,-2.4,-1.1,-3.3c-0.9,-1,-2.2,-1.4,-3.5,-1.4c-2.7,0,-5.1,1.9,-5.1,5.9l0,11.4l-3.7,0Z" class="g3_1" />
<path d="M813.9,146.7l3.6,0l0,-4.2l3.6,-1.2l0,5.4l4.4,0l0,2.7l-4.4,0l0,11.8c0,1,0,2.7,2.7,2.7c0.7,0,1.4,-0.1,1.7,-0.2l0,2.9c-0.6,0.1,-1.7,0.2,-3,0.2c-3.4,0,-5,-1,-5,-4.2l0,-13.2l-3.6,0Z" class="g3_1" />
<path d="M828,146l4,0l0,20l-4,0l0,-20Zm0,-8l4,0l0,4l-4,0l0,-4Z" class="g3_1" />
<path d="M835.6,150.7c0,-1.3,0,-2.7,-0.1,-4l3.7,0l0.1,3.9c0.7,-2.8,3.1,-3.7,4.7,-3.9c1.1,-0.2,2,-0.2,2.6,-0.1l0,3.6c-0.2,-0.1,-0.5,-0.1,-0.7,-0.2c-0.3,0,-0.7,0,-1.1,0c-4.4,0,-5.4,2.6,-5.4,6l0,10.5l-3.8,0Z" class="g3_1" />
<path d="M707.9,157.8c-5.3,0,-9.6,-4.3,-9.6,-9.6c0,-5.3,4.3,-9.6,9.6,-9.6c5.3,0,9.6,4.3,9.6,9.6c0,5.3,-4.3,9.6,-9.6,9.6m0,-23.5c-7.7,0,-13.9,6.2,-13.9,13.9c0,7.6,6.2,13.8,13.9,13.8c7.6,0,13.8,-6.2,13.8,-13.8c0,-7.7,-6.2,-13.9,-13.8,-13.9Z" class="g3_1" />
<path d="M720.3,160.8l-12.4,5.4l-12.5,-5.4l-2,4l14.5,6.2l14.4,-6.2Z" class="g3_1" />
<path d="M493.9,962.7l-3.6,0c-0.6,-2,-1.6,-3.6,-2.4,-4.7c2.6,0.5,4.9,2.3,6,4.7m0.9,3.8c0,0.8,-0.1,1.6,-0.3,2.3l-3.7,0c0.3,-1.7,0.2,-3.3,-0.1,-4.7l3.8,0c0.2,0.7,0.3,1.5,0.3,2.4m-11.7,2.3c-0.4,-1.7,-0.3,-3.3,0,-4.7l6.2,0c0.3,1.4,0.4,3,0,4.7Zm5.8,1.5c-0.5,1.4,-1.4,2.9,-2.7,4.4c-1.3,-1.5,-2.2,-3,-2.7,-4.4Zm-11.3,-3.8c0,-0.9,0.1,-1.7,0.3,-2.4l3.8,0c-0.3,1.4,-0.4,3,-0.1,4.7l-3.7,0c-0.2,-0.7,-0.3,-1.5,-0.3,-2.3m5.9,-3.8c0.8,-2.2,2,-3.8,2.7,-4.5c0.7,0.7,1.9,2.3,2.7,4.5Zm1,-4.7c-0.8,1.1,-1.8,2.7,-2.4,4.7l-3.6,0c1.1,-2.4,3.4,-4.2,6,-4.7m-6,12.3l3.5,0c0.5,1.5,1.3,3,2.5,4.6c-2.7,-0.5,-4.9,-2.3,-6,-4.6m9.4,4.6c1.2,-1.6,2,-3.1,2.5,-4.6l3.5,0c-1.1,2.3,-3.4,4.1,-6,4.6Z" class="g3_1" />
<path d="M511.9,969.2c0.8,0,1.4,-0.4,1.6,-1.1c0.1,-0.2,0.2,-0.5,0.2,-0.7c0,-0.3,0,-0.6,0,-0.9c0,-0.4,0,-0.7,0,-0.9c0,-0.3,-0.1,-0.5,-0.2,-0.7c-0.2,-0.8,-0.8,-1.1,-1.6,-1.1c-0.9,0,-1.4,0.3,-1.7,1.1c-0.1,0.2,-0.1,0.4,-0.1,0.6c-0.1,0.3,-0.1,0.6,-0.1,1c0,0.4,0,0.7,0.1,0.9c0,0.3,0,0.5,0.1,0.7c0.3,0.7,0.8,1.1,1.7,1.1m-3,3.9c-0.2,0,-0.2,0,-0.2,-0.1l0,-10.1c0,-0.2,0,-0.2,0.2,-0.2l1,0c0.1,0,0.1,0,0.1,0.2l0,0.7c0.2,-0.3,0.5,-0.6,0.8,-0.8c0.4,-0.2,0.8,-0.3,1.4,-0.3c0.7,0,1.2,0.2,1.7,0.5c0.4,0.3,0.7,0.7,0.9,1.3c0.1,0.3,0.2,0.7,0.2,1c0.1,0.3,0.1,0.7,0.1,1.2c0,0.5,0,0.9,-0.1,1.2c0,0.3,-0.1,0.6,-0.2,0.9c-0.2,0.6,-0.5,1.1,-0.9,1.4c-0.5,0.3,-1,0.5,-1.7,0.5c-0.6,0,-1,-0.1,-1.4,-0.3c-0.3,-0.2,-0.6,-0.5,-0.8,-0.8l0,3.6c0,0.1,0,0.1,-0.1,0.1Z" class="g3_1" />
<path d="M520.7,969.3c0.6,0,1,-0.1,1.4,-0.4c0.3,-0.2,0.5,-0.6,0.5,-1.1l0,-0.8c0,-0.1,-0.1,-0.1,-0.1,-0.1l-1.5,0c-0.7,0,-1.2,0.1,-1.5,0.3c-0.3,0.2,-0.4,0.5,-0.4,0.9c0,0.4,0.1,0.7,0.4,0.9c0.3,0.2,0.6,0.3,1.2,0.3m2.1,1c-0.1,0,-0.2,-0.1,-0.2,-0.2l0,-0.6c-0.2,0.2,-0.5,0.5,-0.8,0.7c-0.4,0.2,-0.9,0.3,-1.5,0.3c-0.3,0,-0.7,-0.1,-1,-0.2c-0.3,-0.1,-0.5,-0.2,-0.8,-0.4c-0.2,-0.2,-0.4,-0.4,-0.5,-0.7c-0.1,-0.3,-0.2,-0.6,-0.2,-1c0,-0.8,0.2,-1.4,0.8,-1.8c0.5,-0.4,1.2,-0.6,2.1,-0.6l1.8,0c0,0,0.1,0,0.1,-0.1l0,-0.5c0,-0.6,-0.2,-0.9,-0.4,-1.2c-0.3,-0.2,-0.7,-0.3,-1.5,-0.3c-0.4,0,-0.7,0,-1,0.1c-0.3,0.1,-0.6,0.3,-0.8,0.4c-0.1,0.1,-0.2,0.1,-0.2,0l-0.4,-0.7c-0.1,-0.1,-0.1,-0.2,0,-0.2c0.3,-0.3,0.6,-0.4,1.1,-0.6c0.4,-0.1,0.9,-0.2,1.5,-0.2c1.1,0,1.8,0.2,2.3,0.6c0.4,0.4,0.7,1.1,0.7,2l0,5c0,0.1,-0.1,0.2,-0.2,0.2Z" class="g3_1" />
<path d="M529.2,970.4c-0.7,0,-1.2,-0.2,-1.5,-0.5c-0.2,-0.3,-0.4,-0.8,-0.4,-1.5l0,-8.7c0,-0.1,0.1,-0.2,0.2,-0.2l1,0c0.1,0,0.1,0.1,0.1,0.2l0,8.6c0,0.3,0.1,0.5,0.2,0.6c0.1,0.2,0.3,0.2,0.6,0.2l0.3,0c0.1,0,0.2,0.1,0.2,0.2l0,0.9c0,0.1,-0.1,0.2,-0.2,0.2Z" class="g3_1" />
<path d="M535.2,969.3c0.6,0,1,-0.1,1.4,-0.4c0.3,-0.2,0.5,-0.6,0.5,-1.1l0,-0.8c0,-0.1,0,-0.1,-0.1,-0.1l-1.5,0c-0.7,0,-1.2,0.1,-1.5,0.3c-0.3,0.2,-0.4,0.5,-0.4,0.9c0,0.4,0.1,0.7,0.4,0.9c0.3,0.2,0.7,0.3,1.2,0.3m2.1,1c-0.1,0,-0.2,-0.1,-0.2,-0.2l0,-0.6c-0.2,0.2,-0.5,0.5,-0.8,0.7c-0.4,0.2,-0.9,0.3,-1.4,0.3c-0.4,0,-0.7,-0.1,-1.1,-0.2c-0.3,-0.1,-0.5,-0.2,-0.8,-0.4c-0.2,-0.2,-0.4,-0.4,-0.5,-0.7c-0.1,-0.3,-0.2,-0.6,-0.2,-1c0,-0.8,0.3,-1.4,0.8,-1.8c0.5,-0.4,1.2,-0.6,2.2,-0.6l1.7,0c0.1,0,0.1,0,0.1,-0.1l0,-0.5c0,-0.6,-0.1,-0.9,-0.4,-1.2c-0.2,-0.2,-0.7,-0.3,-1.4,-0.3c-0.5,0,-0.8,0,-1.1,0.1c-0.3,0.1,-0.6,0.3,-0.8,0.4c-0.1,0.1,-0.1,0.1,-0.2,0l-0.4,-0.7c-0.1,-0.1,-0.1,-0.2,0,-0.2c0.3,-0.3,0.7,-0.4,1.1,-0.6c0.4,-0.1,0.9,-0.2,1.5,-0.2c1.1,0,1.8,0.2,2.3,0.6c0.4,0.4,0.7,1.1,0.7,2l0,5c0,0.1,-0.1,0.2,-0.2,0.2Z" class="g3_1" />
<path d="M546.8,970.3c-0.1,0,-0.2,-0.1,-0.2,-0.2l0,-4.4c0,-0.6,-0.1,-1.1,-0.4,-1.4c-0.3,-0.4,-0.7,-0.5,-1.3,-0.5c-0.5,0,-0.9,0.1,-1.2,0.5c-0.4,0.3,-0.5,0.7,-0.5,1.3l0,4.5c0,0.1,-0.1,0.2,-0.2,0.2l-1,0c-0.1,0,-0.1,-0.1,-0.1,-0.2l0,-7.2c0,-0.2,0,-0.2,0.1,-0.2l1,0c0.1,0,0.2,0,0.2,0.2l0,0.6c0.2,-0.2,0.4,-0.5,0.8,-0.7c0.4,-0.2,0.8,-0.3,1.3,-0.3c0.8,0,1.5,0.3,2,0.8c0.4,0.5,0.7,1.2,0.7,2.1l0,4.7c0,0.1,-0.1,0.2,-0.2,0.2Z" class="g3_1" />
<path d="M553.6,970.4c-0.7,0,-1.2,-0.2,-1.6,-0.6c-0.3,-0.3,-0.4,-0.8,-0.4,-1.6l0,-4.3c0,-0.1,0,-0.1,-0.1,-0.1l-0.6,0c-0.2,0,-0.2,-0.1,-0.2,-0.2l0,-0.7c0,-0.2,0,-0.2,0.2,-0.2l0.6,0c0.1,0,0.1,0,0.1,-0.1l0,-2.1c0,-0.1,0,-0.2,0.1,-0.2l1.1,0c0.1,0,0.1,0.1,0.1,0.2l0,2.1c0,0.1,0,0.1,0.1,0.1l1.2,0c0.1,0,0.2,0,0.2,0.2l0,0.7c0,0.1,-0.1,0.2,-0.2,0.2l-1.2,0c-0.1,0,-0.1,0,-0.1,0.1l0,4.3c0,0.3,0.1,0.6,0.2,0.7c0.2,0.2,0.4,0.2,0.8,0.2l0.3,0c0.1,0,0.2,0.1,0.2,0.2l0,0.9c0,0.1,-0.1,0.2,-0.2,0.2Z" class="g3_1" />
<path d="M557.5,970.3c-0.1,0,-0.1,-0.1,-0.1,-0.2l0,-7.2c0,-0.2,0,-0.2,0.1,-0.2l1.1,0c0.1,0,0.1,0,0.1,0.2l0,7.2c0,0.1,0,0.2,-0.1,0.2Zm0,-9.3c-0.1,0,-0.1,-0.1,-0.1,-0.2l0,-1.1c0,-0.1,0,-0.2,0.1,-0.2l1.1,0c0.1,0,0.1,0.1,0.1,0.2l0,1.1c0,0.1,0,0.2,-0.1,0.2Z" class="g3_1" />
<path d="M562.4,970.3c-0.1,0,-0.1,-0.1,-0.1,-0.2l0,-7.2c0,-0.2,0,-0.2,0.1,-0.2l1,0c0.1,0,0.2,0,0.2,0.2l0,0.7c0.2,-0.3,0.4,-0.6,0.8,-0.8c0.3,-0.2,0.7,-0.3,1.2,-0.3c0.3,0,0.6,0.1,0.9,0.2c0.3,0.1,0.5,0.2,0.7,0.4c0,0.1,0.1,0.1,0,0.2l-0.6,0.8c0,0.1,-0.1,0.1,-0.2,0c-0.2,-0.1,-0.4,-0.2,-0.6,-0.2c-0.1,-0.1,-0.4,-0.1,-0.6,-0.1c-0.6,0,-1,0.2,-1.2,0.6c-0.3,0.4,-0.4,0.9,-0.4,1.6l0,4.1c0,0.1,-0.1,0.2,-0.2,0.2Z" class="g3_1" />
<path d="M568.5,968.8c0,-0.1,0,-0.2,0.1,-0.2l1.2,0c0.1,0,0.2,0.1,0.2,0.2l0,1.3c0,0.1,-0.1,0.2,-0.2,0.2l-1.2,0c-0.1,0,-0.1,-0.1,-0.1,-0.2Z" class="g3_1" />
<path d="M572.9,966.5c0,-0.4,0,-0.8,0,-1.1c0.1,-0.3,0.1,-0.6,0.2,-0.8c0.2,-0.7,0.6,-1.2,1.1,-1.6c0.6,-0.3,1.2,-0.5,1.9,-0.5c0.6,0,1.1,0.1,1.5,0.4c0.5,0.2,0.8,0.5,1.1,0.9c0.1,0.1,0,0.2,0,0.2l-0.7,0.6c-0.1,0.1,-0.2,0.1,-0.3,0c-0.2,-0.3,-0.4,-0.5,-0.7,-0.6c-0.2,-0.2,-0.5,-0.2,-0.9,-0.2c-0.4,0,-0.8,0.1,-1.1,0.2c-0.2,0.2,-0.5,0.5,-0.6,0.9c0,0.2,-0.1,0.5,-0.1,0.7c0,0.3,-0.1,0.5,-0.1,0.9c0,0.3,0.1,0.6,0.1,0.9c0,0.2,0.1,0.4,0.1,0.6c0.1,0.4,0.4,0.7,0.6,0.9c0.3,0.2,0.7,0.3,1.1,0.3c0.4,0,0.7,0,0.9,-0.2c0.3,-0.1,0.5,-0.3,0.7,-0.6c0.1,-0.1,0.2,-0.1,0.3,0l0.7,0.6c0,0,0.1,0.1,0,0.2c-0.3,0.4,-0.6,0.7,-1.1,0.9c-0.4,0.2,-0.9,0.4,-1.5,0.4c-0.7,0,-1.3,-0.2,-1.9,-0.6c-0.5,-0.3,-0.9,-0.8,-1.1,-1.5c-0.1,-0.2,-0.1,-0.5,-0.2,-0.8c0,-0.3,0,-0.7,0,-1.1Z" class="g3_1" />
<path d="M584.6,969.2c0.4,0,0.7,-0.1,1,-0.3c0.3,-0.2,0.5,-0.5,0.7,-0.9c0,-0.2,0.1,-0.4,0.1,-0.6c0,-0.2,0,-0.5,0,-0.9c0,-0.4,0,-0.7,0,-0.9c0,-0.2,-0.1,-0.4,-0.1,-0.7c-0.2,-0.3,-0.4,-0.6,-0.7,-0.8c-0.3,-0.2,-0.6,-0.3,-1,-0.3c-0.5,0,-0.8,0.1,-1.1,0.3c-0.3,0.2,-0.5,0.5,-0.7,0.8c0,0.3,-0.1,0.5,-0.1,0.7c0,0.2,0,0.5,0,0.9c0,0.4,0,0.7,0,0.9c0,0.2,0.1,0.4,0.1,0.6c0.2,0.4,0.4,0.7,0.7,0.9c0.3,0.2,0.6,0.3,1.1,0.3m0,1.3c-0.8,0,-1.4,-0.2,-1.9,-0.6c-0.6,-0.3,-0.9,-0.8,-1.1,-1.5c-0.1,-0.3,-0.2,-0.5,-0.2,-0.8c-0.1,-0.3,-0.1,-0.7,-0.1,-1.1c0,-0.5,0,-0.8,0.1,-1.1c0,-0.3,0.1,-0.6,0.2,-0.8c0.2,-0.7,0.5,-1.2,1.1,-1.6c0.5,-0.3,1.1,-0.5,1.9,-0.5c0.7,0,1.3,0.2,1.8,0.5c0.6,0.4,0.9,0.9,1.1,1.6c0.1,0.2,0.2,0.5,0.2,0.8c0.1,0.3,0.1,0.6,0.1,1.1c0,0.4,0,0.8,-0.1,1.1c0,0.3,-0.1,0.5,-0.2,0.8c-0.2,0.7,-0.5,1.2,-1.1,1.5c-0.5,0.4,-1.1,0.6,-1.8,0.6Z" class="g3_1" />
<path d="M600.6,970.3c-0.1,0,-0.2,-0.1,-0.2,-0.2l0,-4.4c0,-0.6,-0.1,-1.1,-0.4,-1.4c-0.3,-0.4,-0.7,-0.5,-1.3,-0.5c-0.5,0,-0.9,0.1,-1.2,0.5c-0.3,0.3,-0.5,0.7,-0.5,1.3l0,4.5c0,0.1,-0.1,0.2,-0.2,0.2l-1,0c-0.1,0,-0.1,-0.1,-0.1,-0.2l0,-4.4c0,-0.6,-0.2,-1.1,-0.5,-1.4c-0.2,-0.4,-0.7,-0.5,-1.2,-0.5c-0.6,0,-1,0.1,-1.3,0.5c-0.3,0.3,-0.5,0.7,-0.5,1.3l0,4.5c0,0.1,0,0.2,-0.1,0.2l-1.1,0c-0.1,0,-0.1,-0.1,-0.1,-0.2l0,-7.2c0,-0.2,0,-0.2,0.1,-0.2l1.1,0c0.1,0,0.1,0,0.1,0.2l0,0.6c0.2,-0.2,0.5,-0.5,0.8,-0.7c0.4,-0.2,0.8,-0.3,1.4,-0.3c0.5,0,0.9,0.1,1.3,0.3c0.4,0.2,0.7,0.5,0.9,0.9c0.3,-0.4,0.6,-0.7,1,-0.9c0.4,-0.2,0.9,-0.3,1.5,-0.3c0.8,0,1.5,0.3,2,0.8c0.4,0.5,0.7,1.2,0.7,2.1l0,4.7c0,0.1,-0.1,0.2,-0.2,0.2Z" class="g3_1" />
<path d="M608.4,959.5c0,-0.1,0.1,-0.2,0.2,-0.2l0.9,0c0.1,0,0.1,0.1,0.1,0.2l-3.5,10.8c-0.1,0.1,-0.1,0.2,-0.3,0.2l-0.8,0c-0.1,0,-0.1,-0.1,-0.1,-0.2Z" class="g3_1" />
<path d="M612.3,966.5c0,-0.4,0,-0.8,0.1,-1.1c0,-0.3,0.1,-0.6,0.2,-0.8c0.2,-0.7,0.5,-1.2,1.1,-1.6c0.5,-0.3,1.1,-0.5,1.9,-0.5c0.5,0,1.1,0.1,1.5,0.4c0.4,0.2,0.8,0.5,1.1,0.9c0,0.1,0,0.2,-0.1,0.2l-0.7,0.6c-0.1,0.1,-0.1,0.1,-0.2,0c-0.2,-0.3,-0.5,-0.5,-0.7,-0.6c-0.2,-0.2,-0.6,-0.2,-0.9,-0.2c-0.5,0,-0.8,0.1,-1.1,0.2c-0.3,0.2,-0.5,0.5,-0.6,0.9c-0.1,0.2,-0.1,0.5,-0.2,0.7c0,0.3,0,0.5,0,0.9c0,0.3,0,0.6,0,0.9c0.1,0.2,0.1,0.4,0.2,0.6c0.1,0.4,0.3,0.7,0.6,0.9c0.3,0.2,0.6,0.3,1.1,0.3c0.3,0,0.7,0,0.9,-0.2c0.2,-0.1,0.5,-0.3,0.7,-0.6c0.1,-0.1,0.1,-0.1,0.2,0l0.7,0.6c0.1,0,0.1,0.1,0.1,0.2c-0.3,0.4,-0.7,0.7,-1.1,0.9c-0.4,0.2,-1,0.4,-1.5,0.4c-0.8,0,-1.4,-0.2,-1.9,-0.6c-0.6,-0.3,-0.9,-0.8,-1.1,-1.5c-0.1,-0.2,-0.2,-0.5,-0.2,-0.8c-0.1,-0.3,-0.1,-0.7,-0.1,-1.1Z" class="g3_1" />
<path d="M623.5,969.3c0.6,0,1.1,-0.1,1.4,-0.4c0.4,-0.2,0.5,-0.6,0.5,-1.1l0,-0.8c0,-0.1,0,-0.1,-0.1,-0.1l-1.5,0c-0.7,0,-1.1,0.1,-1.4,0.3c-0.3,0.2,-0.5,0.5,-0.5,0.9c0,0.4,0.2,0.7,0.4,0.9c0.3,0.2,0.7,0.3,1.2,0.3m2.1,1c-0.1,0,-0.1,-0.1,-0.1,-0.2l0,-0.6l-0.1,0c-0.1,0.2,-0.4,0.5,-0.8,0.7c-0.3,0.2,-0.8,0.3,-1.4,0.3c-0.4,0,-0.7,-0.1,-1,-0.2c-0.3,-0.1,-0.6,-0.2,-0.8,-0.4c-0.2,-0.2,-0.4,-0.4,-0.6,-0.7c-0.1,-0.3,-0.2,-0.6,-0.2,-1c0,-0.8,0.3,-1.4,0.8,-1.8c0.6,-0.4,1.3,-0.6,2.2,-0.6l1.7,0c0.1,0,0.1,0,0.1,-0.1l0,-0.5c0,-0.6,-0.1,-0.9,-0.4,-1.2c-0.2,-0.2,-0.7,-0.3,-1.4,-0.3c-0.4,0,-0.8,0,-1.1,0.1c-0.3,0.1,-0.5,0.3,-0.7,0.4c-0.1,0.1,-0.2,0.1,-0.3,0l-0.4,-0.7c0,-0.1,0,-0.2,0.1,-0.2c0.2,-0.3,0.6,-0.4,1,-0.6c0.5,-0.1,1,-0.2,1.5,-0.2c1.1,0,1.9,0.2,2.3,0.6c0.5,0.4,0.7,1.1,0.7,2l0,5c0,0.1,0,0.2,-0.1,0.2Z" class="g3_1" />
<path d="M630.4,970.3c-0.1,0,-0.2,-0.1,-0.2,-0.2l0,-7.2c0,-0.2,0.1,-0.2,0.2,-0.2l1,0c0.1,0,0.1,0,0.1,0.2l0,0.7c0.2,-0.3,0.5,-0.6,0.8,-0.8c0.3,-0.2,0.8,-0.3,1.3,-0.3c0.3,0,0.6,0.1,0.8,0.2c0.3,0.1,0.5,0.2,0.7,0.4c0.1,0.1,0.1,0.1,0,0.2l-0.5,0.8c-0.1,0.1,-0.2,0.1,-0.3,0c-0.1,-0.1,-0.3,-0.2,-0.5,-0.2c-0.2,-0.1,-0.4,-0.1,-0.6,-0.1c-0.6,0,-1,0.2,-1.3,0.6c-0.2,0.4,-0.4,0.9,-0.4,1.6l0,4.1c0,0.1,0,0.2,-0.1,0.2Z" class="g3_1" />
<path d="M642.2,965.8c0,0,0.1,0,0.1,-0.1c0,-0.3,-0.1,-0.6,-0.2,-0.8c-0.1,-0.4,-0.3,-0.7,-0.6,-0.9c-0.3,-0.2,-0.7,-0.3,-1.1,-0.3c-0.4,0,-0.8,0.1,-1.1,0.3c-0.3,0.2,-0.5,0.5,-0.6,0.9c-0.1,0.2,-0.2,0.5,-0.2,0.8c0,0.1,0.1,0.1,0.1,0.1Zm-1.7,4.7c-0.8,0,-1.4,-0.2,-2,-0.6c-0.5,-0.3,-0.8,-0.8,-1.1,-1.5c0,-0.2,-0.1,-0.5,-0.2,-0.8c0,-0.3,0,-0.7,0,-1.1c0,-0.5,0,-0.8,0,-1.1c0.1,-0.3,0.1,-0.6,0.2,-0.8c0.2,-0.7,0.6,-1.2,1.1,-1.6c0.5,-0.3,1.2,-0.5,1.9,-0.5c0.7,0,1.4,0.2,1.9,0.6c0.5,0.3,0.9,0.8,1.1,1.5c0,0.1,0.1,0.2,0.1,0.4c0,0.1,0,0.2,0.1,0.4c0,0.2,0,0.4,0,0.6c0,0.2,0,0.4,0,0.7c0,0.1,0,0.2,-0.2,0.2l-4.8,0c0,0,-0.1,0,-0.1,0.1c0,0.2,0.1,0.4,0.1,0.5c0,0.1,0,0.3,0.1,0.4c0.1,0.4,0.4,0.8,0.7,1c0.3,0.2,0.7,0.3,1.2,0.3c0.4,0,0.8,-0.1,1.1,-0.2c0.4,-0.2,0.6,-0.4,0.8,-0.6c0.1,-0.1,0.2,-0.1,0.3,-0.1l0.6,0.6c0.1,0.1,0.1,0.2,0,0.3c-0.3,0.3,-0.7,0.7,-1.2,0.9c-0.5,0.2,-1.1,0.4,-1.7,0.4Z" class="g3_1" />
<path d="M651.2,965.8c0.1,0,0.1,0,0.1,-0.1c0,-0.3,0,-0.6,-0.1,-0.8c-0.1,-0.4,-0.3,-0.7,-0.6,-0.9c-0.3,-0.2,-0.7,-0.3,-1.1,-0.3c-0.5,0,-0.8,0.1,-1.1,0.3c-0.3,0.2,-0.6,0.5,-0.7,0.9c-0.1,0.2,-0.1,0.5,-0.1,0.8c0,0.1,0,0.1,0.1,0.1Zm-1.7,4.7c-0.7,0,-1.4,-0.2,-1.9,-0.6c-0.5,-0.3,-0.9,-0.8,-1.1,-1.5c-0.1,-0.2,-0.1,-0.5,-0.2,-0.8c0,-0.3,-0.1,-0.7,-0.1,-1.1c0,-0.5,0.1,-0.8,0.1,-1.1c0,-0.3,0.1,-0.6,0.2,-0.8c0.2,-0.7,0.6,-1.2,1.1,-1.6c0.5,-0.3,1.1,-0.5,1.9,-0.5c0.7,0,1.3,0.2,1.8,0.6c0.6,0.3,0.9,0.8,1.1,1.5c0.1,0.1,0.1,0.2,0.1,0.4c0.1,0.1,0.1,0.2,0.1,0.4c0,0.2,0.1,0.4,0.1,0.6c0,0.2,0,0.4,0,0.7c0,0.1,-0.1,0.2,-0.2,0.2l-4.8,0c-0.1,0,-0.1,0,-0.1,0.1c0,0.2,0,0.4,0,0.5c0.1,0.1,0.1,0.3,0.1,0.4c0.2,0.4,0.4,0.8,0.8,1c0.3,0.2,0.7,0.3,1.2,0.3c0.4,0,0.8,-0.1,1.1,-0.2c0.3,-0.2,0.6,-0.4,0.8,-0.6c0.1,-0.1,0.2,-0.1,0.2,-0.1l0.7,0.6c0.1,0.1,0.1,0.2,0,0.3c-0.3,0.3,-0.7,0.7,-1.2,0.9c-0.5,0.2,-1.1,0.4,-1.8,0.4Z" class="g3_1" />
<path d="M655.9,970.3c-0.1,0,-0.1,-0.1,-0.1,-0.2l0,-7.2c0,-0.2,0,-0.2,0.1,-0.2l1,0c0.1,0,0.2,0,0.2,0.2l0,0.7c0.2,-0.3,0.4,-0.6,0.8,-0.8c0.3,-0.2,0.7,-0.3,1.2,-0.3c0.3,0,0.6,0.1,0.9,0.2c0.3,0.1,0.5,0.2,0.7,0.4c0.1,0.1,0.1,0.1,0,0.2l-0.6,0.8c0,0.1,-0.1,0.1,-0.2,0c-0.2,-0.1,-0.4,-0.2,-0.5,-0.2c-0.2,-0.1,-0.4,-0.1,-0.7,-0.1c-0.5,0,-1,0.2,-1.2,0.6c-0.3,0.4,-0.4,0.9,-0.4,1.6l0,4.1c0,0.1,-0.1,0.2,-0.2,0.2Z" class="g3_1" />
<path d="M665.7,970.5c-0.4,0,-0.7,-0.1,-1,-0.1c-0.3,-0.1,-0.6,-0.2,-0.9,-0.3c-0.2,-0.1,-0.5,-0.2,-0.7,-0.4c-0.2,-0.1,-0.4,-0.2,-0.5,-0.4c-0.1,-0.1,-0.1,-0.1,0,-0.2l0.6,-0.7c0.1,-0.1,0.2,-0.1,0.2,0c0.3,0.2,0.7,0.4,1.1,0.6c0.4,0.2,0.8,0.3,1.3,0.3c0.5,0,1,-0.1,1.2,-0.4c0.3,-0.2,0.4,-0.5,0.4,-0.8c0,-0.3,-0.1,-0.5,-0.2,-0.7c-0.2,-0.2,-0.6,-0.3,-1.2,-0.3L665.2,967c-0.8,-0.1,-1.4,-0.3,-1.7,-0.7c-0.4,-0.4,-0.6,-0.8,-0.6,-1.5c0,-0.7,0.2,-1.3,0.7,-1.7c0.5,-0.4,1.2,-0.6,2.1,-0.6c0.6,0,1.1,0.1,1.5,0.3c0.5,0.1,0.9,0.3,1.2,0.6c0.1,0,0.1,0.1,0,0.2l-0.5,0.7c-0.1,0,-0.1,0,-0.2,0c-0.3,-0.2,-0.6,-0.3,-0.9,-0.4c-0.4,-0.2,-0.8,-0.2,-1.2,-0.2c-0.4,0,-0.8,0.1,-1,0.3c-0.3,0.2,-0.4,0.4,-0.4,0.7c0,0.3,0.1,0.6,0.3,0.7c0.2,0.2,0.6,0.3,1.2,0.4l0.8,0c0.8,0.1,1.3,0.3,1.7,0.7c0.4,0.4,0.6,0.9,0.6,1.5c0,0.7,-0.3,1.3,-0.8,1.8c-0.5,0.4,-1.3,0.7,-2.3,0.7Z" class="g3_1" />
<path d="M489.8,1005.6l0.4,-2.8l-2.8,0l0,-1.8c0,-0.8,0.2,-1.4,1.4,-1.4l1.5,0l0,-2.5c-0.3,0,-1.2,-0.1,-2.2,-0.1c-2.2,0,-3.6,1.3,-3.6,3.7l0,2.1l-2.5,0l0,2.8l2.5,0l0,7.2l2.9,0l0,-7.2Z" class="g3_1" />
<path d="M512.6,1004.3c0.7,0,1.2,-0.1,1.6,-0.5c0.3,-0.3,0.5,-0.8,0.5,-1.4c0,-0.6,-0.2,-1,-0.5,-1.4c-0.4,-0.3,-0.9,-0.5,-1.6,-0.5l-2.4,0c0,0,-0.1,0.1,-0.1,0.1l0,3.6c0,0.1,0.1,0.1,0.1,0.1Zm-3.7,5.7c-0.2,0,-0.2,-0.1,-0.2,-0.2l0,-10.4c0,-0.1,0,-0.2,0.2,-0.2l3.8,0c0.5,0,1,0.1,1.4,0.2c0.4,0.2,0.8,0.4,1.1,0.7c0.3,0.3,0.5,0.6,0.7,1c0.1,0.4,0.2,0.8,0.2,1.3c0,0.5,-0.1,1,-0.2,1.3c-0.2,0.4,-0.4,0.8,-0.7,1.1c-0.3,0.2,-0.7,0.5,-1.1,0.6c-0.4,0.2,-0.9,0.2,-1.4,0.2l-2.5,0c0,0,-0.1,0.1,-0.1,0.1l0,4.1c0,0.1,0,0.2,-0.1,0.2Z" class="g3_1" />
<path d="M521.2,1009c0.6,0,1,-0.1,1.4,-0.4c0.3,-0.2,0.5,-0.6,0.5,-1.1l0,-0.8c0,-0.1,-0.1,-0.1,-0.1,-0.1l-1.5,0c-0.7,0,-1.2,0.1,-1.5,0.3c-0.3,0.2,-0.4,0.5,-0.4,0.9c0,0.4,0.1,0.7,0.4,0.9c0.3,0.2,0.7,0.3,1.2,0.3m2.1,1c-0.1,0,-0.2,-0.1,-0.2,-0.2l0,-0.6c-0.2,0.2,-0.5,0.5,-0.8,0.7c-0.4,0.2,-0.9,0.3,-1.5,0.3c-0.3,0,-0.6,-0.1,-1,-0.2c-0.3,-0.1,-0.5,-0.2,-0.8,-0.4c-0.2,-0.2,-0.4,-0.4,-0.5,-0.7c-0.1,-0.3,-0.2,-0.6,-0.2,-1c0,-0.8,0.3,-1.4,0.8,-1.8c0.5,-0.4,1.2,-0.6,2.2,-0.6l1.7,0c0,0,0.1,0,0.1,-0.1l0,-0.5c0,-0.6,-0.1,-0.9,-0.4,-1.2c-0.3,-0.2,-0.7,-0.3,-1.4,-0.3c-0.5,0,-0.8,0,-1.1,0.1c-0.3,0.1,-0.6,0.3,-0.8,0.4c-0.1,0.1,-0.1,0.1,-0.2,0l-0.4,-0.7c-0.1,-0.1,-0.1,-0.2,0,-0.2c0.3,-0.3,0.6,-0.4,1.1,-0.6c0.4,-0.1,0.9,-0.2,1.5,-0.2c1.1,0,1.8,0.2,2.3,0.6c0.4,0.4,0.7,1.1,0.7,2l0,5c0,0.1,-0.1,0.2,-0.2,0.2Z" class="g3_1" />
<path d="M529.7,1010.1c-0.7,0,-1.2,-0.2,-1.5,-0.5c-0.2,-0.3,-0.4,-0.8,-0.4,-1.5l0,-8.7c0,-0.1,0.1,-0.2,0.2,-0.2l1,0c0.1,0,0.1,0.1,0.1,0.2l0,8.6c0,0.3,0.1,0.5,0.2,0.6c0.2,0.2,0.3,0.2,0.6,0.2l0.3,0c0.1,0,0.2,0.1,0.2,0.2l0,0.9c0,0.1,-0.1,0.2,-0.2,0.2Z" class="g3_1" />
<path d="M535.7,1009c0.6,0,1,-0.1,1.4,-0.4c0.3,-0.2,0.5,-0.6,0.5,-1.1l0,-0.8c0,-0.1,0,-0.1,-0.1,-0.1l-1.5,0c-0.7,0,-1.2,0.1,-1.5,0.3c-0.3,0.2,-0.4,0.5,-0.4,0.9c0,0.4,0.1,0.7,0.4,0.9c0.3,0.2,0.7,0.3,1.2,0.3m2.1,1c-0.1,0,-0.2,-0.1,-0.2,-0.2l0,-0.6c-0.2,0.2,-0.4,0.5,-0.8,0.7c-0.4,0.2,-0.9,0.3,-1.4,0.3c-0.4,0,-0.7,-0.1,-1,-0.2c-0.4,-0.1,-0.6,-0.2,-0.9,-0.4c-0.2,-0.2,-0.4,-0.4,-0.5,-0.7c-0.1,-0.3,-0.2,-0.6,-0.2,-1c0,-0.8,0.3,-1.4,0.8,-1.8c0.5,-0.4,1.2,-0.6,2.2,-0.6l1.7,0c0.1,0,0.1,0,0.1,-0.1l0,-0.5c0,-0.6,-0.1,-0.9,-0.4,-1.2c-0.2,-0.2,-0.7,-0.3,-1.4,-0.3c-0.5,0,-0.8,0,-1.1,0.1c-0.3,0.1,-0.5,0.3,-0.8,0.4c-0.1,0.1,-0.1,0.1,-0.2,0l-0.4,-0.7c-0.1,-0.1,0,-0.2,0,-0.2c0.3,-0.3,0.7,-0.4,1.1,-0.6c0.4,-0.1,0.9,-0.2,1.5,-0.2c1.1,0,1.8,0.2,2.3,0.6c0.5,0.4,0.7,1.1,0.7,2l0,5c0,0.1,-0.1,0.2,-0.2,0.2Z" class="g3_1" />
<path d="M547.3,1010c-0.1,0,-0.2,-0.1,-0.2,-0.2l0,-4.4c0,-0.6,-0.1,-1.1,-0.4,-1.4c-0.3,-0.4,-0.7,-0.5,-1.3,-0.5c-0.5,0,-0.9,0.1,-1.2,0.5c-0.3,0.3,-0.5,0.7,-0.5,1.3l0,4.5c0,0.1,-0.1,0.2,-0.2,0.2l-1,0c-0.1,0,-0.1,-0.1,-0.1,-0.2l0,-7.2c0,-0.2,0,-0.2,0.1,-0.2l1,0c0.1,0,0.2,0,0.2,0.2l0,0.7c0.2,-0.3,0.5,-0.6,0.8,-0.8c0.4,-0.2,0.8,-0.3,1.3,-0.3c0.9,0,1.5,0.3,2,0.8c0.4,0.5,0.7,1.2,0.7,2.1l0,4.7c0,0.1,-0.1,0.2,-0.2,0.2Z" class="g3_1" />
<path d="M554.1,1010.1c-0.7,0,-1.2,-0.2,-1.5,-0.6c-0.4,-0.3,-0.5,-0.8,-0.5,-1.6l0,-4.3c0,-0.1,0,-0.1,-0.1,-0.1l-0.6,0c-0.1,0,-0.2,-0.1,-0.2,-0.2l0,-0.7c0,-0.1,0.1,-0.2,0.2,-0.2l0.6,0c0.1,0,0.1,0,0.1,-0.1l0,-2.1c0,-0.1,0,-0.2,0.1,-0.2l1.1,0c0.1,0,0.1,0.1,0.1,0.2l0,2.1c0,0.1,0.1,0.1,0.1,0.1l1.2,0c0.1,0,0.2,0.1,0.2,0.2l0,0.7c0,0.1,-0.1,0.2,-0.2,0.2l-1.2,0c0,0,-0.1,0,-0.1,0.1l0,4.3c0,0.3,0.1,0.6,0.3,0.7c0.1,0.2,0.3,0.2,0.7,0.2l0.3,0c0.1,0,0.2,0.1,0.2,0.2l0,0.9c0,0.1,-0.1,0.2,-0.2,0.2Z" class="g3_1" />
<path d="M558,1010c-0.1,0,-0.1,-0.1,-0.1,-0.2l0,-7.2c0,-0.2,0,-0.2,0.1,-0.2l1.1,0c0.1,0,0.1,0,0.1,0.2l0,7.2c0,0.1,0,0.2,-0.1,0.2Zm0,-9.3c-0.1,0,-0.1,-0.1,-0.1,-0.2l0,-1.1c0,-0.1,0,-0.2,0.1,-0.2l1.1,0c0.1,0,0.2,0.1,0.2,0.2l0,1.1c0,0.1,-0.1,0.2,-0.2,0.2Z" class="g3_1" />
<path d="M562.9,1010c-0.1,0,-0.1,-0.1,-0.1,-0.2l0,-7.2c0,-0.2,0,-0.2,0.1,-0.2l1,0c0.1,0,0.2,0,0.2,0.2l0,0.7c0.2,-0.3,0.4,-0.6,0.8,-0.8c0.3,-0.2,0.7,-0.3,1.2,-0.3c0.3,0,0.6,0.1,0.9,0.2c0.3,0.1,0.5,0.2,0.7,0.4c0.1,0.1,0.1,0.1,0,0.2l-0.6,0.8c0,0.1,-0.1,0.1,-0.2,0c-0.2,-0.1,-0.4,-0.2,-0.6,-0.2c-0.1,-0.1,-0.3,-0.1,-0.6,-0.1c-0.6,0,-1,0.2,-1.2,0.6c-0.3,0.4,-0.4,0.9,-0.4,1.6l0,4.1c0,0.1,-0.1,0.2,-0.2,0.2Z" class="g3_1" />
<path d="M577.8,1008.9c0.4,0,0.7,-0.1,1,-0.3c0.3,-0.2,0.5,-0.5,0.7,-0.9c0,-0.2,0.1,-0.4,0.1,-0.6c0,-0.2,0,-0.5,0,-0.9c0,-0.4,0,-0.7,0,-0.9c0,-0.2,-0.1,-0.4,-0.1,-0.7c-0.2,-0.3,-0.4,-0.6,-0.7,-0.8c-0.3,-0.2,-0.6,-0.3,-1,-0.3c-0.5,0,-0.8,0.1,-1.1,0.3c-0.3,0.2,-0.5,0.5,-0.7,0.8c0,0.3,-0.1,0.5,-0.1,0.7c0,0.2,0,0.5,0,0.9c0,0.4,0,0.7,0,0.9c0,0.2,0.1,0.4,0.1,0.6c0.2,0.4,0.4,0.7,0.7,0.9c0.3,0.2,0.6,0.3,1.1,0.3m0,1.3c-0.8,0,-1.4,-0.2,-1.9,-0.6c-0.6,-0.3,-0.9,-0.8,-1.1,-1.5c-0.1,-0.2,-0.2,-0.5,-0.2,-0.8c-0.1,-0.3,-0.1,-0.7,-0.1,-1.1c0,-0.5,0,-0.8,0.1,-1.1c0,-0.3,0.1,-0.6,0.2,-0.8c0.2,-0.7,0.5,-1.2,1.1,-1.5c0.5,-0.4,1.1,-0.6,1.9,-0.6c0.7,0,1.3,0.2,1.8,0.6c0.6,0.3,0.9,0.8,1.2,1.5c0,0.2,0.1,0.5,0.1,0.8c0.1,0.3,0.1,0.6,0.1,1.1c0,0.4,0,0.8,-0.1,1.1c0,0.3,-0.1,0.6,-0.1,0.8c-0.3,0.7,-0.6,1.2,-1.2,1.5c-0.5,0.4,-1.1,0.6,-1.8,0.6Z" class="g3_1" />
<path d="M589,1010c-0.1,0,-0.1,-0.1,-0.1,-0.2l0,-4.4c0,-0.6,-0.2,-1.1,-0.5,-1.4c-0.2,-0.4,-0.7,-0.5,-1.2,-0.5c-0.6,0,-1,0.1,-1.3,0.5c-0.3,0.3,-0.5,0.7,-0.5,1.3l0,4.5c0,0.1,0,0.2,-0.1,0.2l-1.1,0c-0.1,0,-0.1,-0.1,-0.1,-0.2l0,-7.2c0,-0.2,0,-0.2,0.1,-0.2l1.1,0c0.1,0,0.1,0,0.1,0.2l0,0.7c0.2,-0.3,0.5,-0.6,0.8,-0.8c0.4,-0.2,0.8,-0.3,1.4,-0.3c0.8,0,1.4,0.3,1.9,0.8c0.5,0.5,0.7,1.2,0.7,2.1l0,4.7c0,0.1,-0.1,0.2,-0.2,0.2Z" class="g3_1" />
<path d="M598.4,1007.6c-0.1,-0.1,-0.1,-0.3,-0.2,-0.5c0,-0.1,-0.1,-0.3,-0.1,-0.5c0,-0.3,0,-0.5,0,-0.9c0,-0.3,0,-0.7,0,-1.1c0,-0.4,0,-0.8,0,-1.1c0,-0.4,0,-0.6,0,-0.9c0,-0.2,0.1,-0.4,0.1,-0.5c0.1,-0.2,0.1,-0.4,0.2,-0.5c0.2,-0.9,0.7,-1.5,1.3,-1.9c0.6,-0.5,1.3,-0.7,2.2,-0.7c0.8,0,1.5,0.2,2.1,0.6c0.6,0.4,1.1,0.9,1.4,1.6c0,0.1,0,0.2,-0.1,0.2l-0.9,0.5c-0.1,0,-0.2,0,-0.3,-0.1c-0.2,-0.4,-0.4,-0.8,-0.8,-1c-0.3,-0.3,-0.8,-0.5,-1.4,-0.5c-0.6,0,-1,0.2,-1.4,0.5c-0.4,0.2,-0.6,0.6,-0.8,1.1c0,0.2,-0.1,0.3,-0.1,0.4c0,0.1,0,0.3,-0.1,0.5c0,0.2,0,0.4,0,0.7c0,0.3,0,0.7,0,1.1c0,0.4,0,0.8,0,1.1c0,0.3,0,0.5,0,0.7c0.1,0.2,0.1,0.4,0.1,0.5c0,0.1,0.1,0.3,0.1,0.4c0.2,0.5,0.4,0.9,0.8,1.1c0.4,0.3,0.8,0.4,1.4,0.4c0.6,0,1.1,-0.1,1.4,-0.4c0.4,-0.2,0.6,-0.6,0.8,-1c0.1,-0.1,0.2,-0.1,0.3,-0.1l0.9,0.5c0.1,0,0.1,0.1,0.1,0.2c-0.3,0.7,-0.8,1.2,-1.4,1.6c-0.6,0.4,-1.3,0.6,-2.1,0.6c-0.9,0,-1.6,-0.2,-2.2,-0.7c-0.6,-0.4,-1.1,-1,-1.3,-1.9Z" class="g3_1" />
<path d="M610.8,1009c0.6,0,1.1,-0.1,1.4,-0.4c0.4,-0.2,0.5,-0.6,0.5,-1.1l0,-0.8c0,-0.1,0,-0.1,-0.1,-0.1l-1.5,0c-0.6,0,-1.1,0.1,-1.4,0.3c-0.3,0.2,-0.5,0.5,-0.5,0.9c0,0.4,0.2,0.7,0.4,0.9c0.3,0.2,0.7,0.3,1.2,0.3m2.1,1c-0.1,0,-0.1,-0.1,-0.1,-0.2l0,-0.6c-0.2,0.2,-0.5,0.5,-0.9,0.7c-0.3,0.2,-0.8,0.3,-1.4,0.3c-0.4,0,-0.7,-0.1,-1,-0.2c-0.3,-0.1,-0.6,-0.2,-0.8,-0.4c-0.2,-0.2,-0.4,-0.4,-0.6,-0.7c-0.1,-0.3,-0.2,-0.6,-0.2,-1c0,-0.8,0.3,-1.4,0.8,-1.8c0.6,-0.4,1.3,-0.6,2.2,-0.6l1.7,0c0.1,0,0.1,0,0.1,-0.1l0,-0.5c0,-0.6,-0.1,-0.9,-0.3,-1.2c-0.3,-0.2,-0.8,-0.3,-1.5,-0.3c-0.4,0,-0.8,0,-1.1,0.1c-0.3,0.1,-0.5,0.3,-0.7,0.4c-0.1,0.1,-0.2,0.1,-0.2,0l-0.5,-0.7c0,-0.1,0,-0.2,0.1,-0.2c0.2,-0.3,0.6,-0.4,1,-0.6c0.5,-0.1,1,-0.2,1.5,-0.2c1.1,0,1.9,0.2,2.3,0.6c0.5,0.4,0.7,1.1,0.7,2l0,5c0,0.1,0,0.2,-0.1,0.2Z" class="g3_1" />
<path d="M627.2,1010c-0.1,0,-0.2,-0.1,-0.2,-0.2l0,-4.4c0,-0.6,-0.1,-1.1,-0.4,-1.4c-0.3,-0.4,-0.7,-0.5,-1.3,-0.5c-0.5,0,-0.9,0.1,-1.2,0.5c-0.3,0.3,-0.5,0.7,-0.5,1.3l0,4.5c0,0.1,0,0.2,-0.2,0.2l-1,0c-0.1,0,-0.1,-0.1,-0.1,-0.2l0,-4.4c0,-0.6,-0.2,-1.1,-0.4,-1.4c-0.3,-0.4,-0.8,-0.5,-1.3,-0.5c-0.5,0,-1,0.1,-1.3,0.5c-0.3,0.3,-0.5,0.7,-0.5,1.3l0,4.5c0,0.1,0,0.2,-0.1,0.2l-1,0c-0.1,0,-0.2,-0.1,-0.2,-0.2l0,-7.2c0,-0.2,0.1,-0.2,0.2,-0.2l1,0c0.1,0,0.1,0,0.1,0.2l0,0.7l0.1,0c0.1,-0.3,0.4,-0.6,0.8,-0.8c0.3,-0.2,0.8,-0.3,1.3,-0.3c0.5,0,0.9,0.1,1.3,0.3c0.4,0.2,0.7,0.5,0.9,0.9c0.3,-0.4,0.6,-0.7,1,-0.9c0.4,-0.2,0.9,-0.3,1.5,-0.3c0.9,0,1.5,0.3,2,0.8c0.4,0.5,0.7,1.2,0.7,2.1l0,4.7c0,0.1,-0.1,0.2,-0.2,0.2Z" class="g3_1" />
<path d="M635,1008.9c0.9,0,1.4,-0.4,1.7,-1.1c0.1,-0.2,0.1,-0.5,0.1,-0.7c0.1,-0.3,0.1,-0.6,0.1,-0.9c0,-0.4,0,-0.7,-0.1,-0.9c0,-0.3,0,-0.5,-0.1,-0.7c-0.3,-0.8,-0.8,-1.1,-1.7,-1.1c-0.8,0,-1.4,0.3,-1.7,1.1c0,0.2,-0.1,0.4,-0.1,0.6c0,0.3,0,0.6,0,1c0,0.4,0,0.7,0,0.9c0,0.3,0.1,0.5,0.1,0.7c0.3,0.7,0.9,1.1,1.7,1.1m-3,3.9c-0.1,0,-0.2,0,-0.2,-0.1l0,-10.1c0,-0.2,0.1,-0.2,0.2,-0.2l1,0c0.1,0,0.2,0,0.2,0.2l0,0.7c0.2,-0.3,0.4,-0.6,0.8,-0.8c0.3,-0.2,0.8,-0.3,1.3,-0.3c0.7,0,1.3,0.2,1.7,0.5c0.5,0.3,0.8,0.7,1,1.3c0.1,0.3,0.1,0.7,0.2,1c0,0.3,0,0.7,0,1.2c0,0.5,0,0.9,0,1.2c-0.1,0.3,-0.1,0.6,-0.2,0.9c-0.2,0.6,-0.5,1.1,-1,1.4c-0.4,0.3,-1,0.5,-1.7,0.5c-0.5,0,-1,-0.1,-1.3,-0.3c-0.4,-0.2,-0.6,-0.5,-0.8,-0.8l0,3.6c0,0.1,-0.1,0.1,-0.2,0.1Z" class="g3_1" />
<path d="M646.1,1010c-0.1,0,-0.2,-0.1,-0.2,-0.2l0,-0.7c-0.2,0.3,-0.5,0.6,-0.8,0.8c-0.3,0.2,-0.8,0.3,-1.3,0.3c-0.8,0,-1.4,-0.3,-1.9,-0.8c-0.5,-0.5,-0.7,-1.2,-0.7,-2.1l0,-4.7c0,-0.2,0.1,-0.2,0.2,-0.2l1,0c0.1,0,0.1,0,0.1,0.2l0,4.4c0,0.6,0.2,1.1,0.4,1.4c0.3,0.4,0.7,0.5,1.3,0.5c0.5,0,0.9,-0.1,1.3,-0.5c0.3,-0.3,0.4,-0.8,0.4,-1.3l0,-4.5c0,-0.2,0.1,-0.2,0.2,-0.2l1,0c0.1,0,0.2,0,0.2,0.2l0,7.2c0,0.1,-0.1,0.2,-0.2,0.2Z" class="g3_1" />
<path d="M653.4,1010.2c-0.3,0,-0.7,-0.1,-1,-0.1c-0.3,-0.1,-0.6,-0.2,-0.9,-0.3c-0.2,-0.1,-0.5,-0.2,-0.7,-0.4c-0.2,-0.1,-0.4,-0.2,-0.5,-0.4c-0.1,-0.1,-0.1,-0.1,0,-0.2l0.6,-0.7c0.1,-0.1,0.2,-0.1,0.3,0c0.2,0.2,0.6,0.4,1,0.6c0.4,0.2,0.8,0.3,1.3,0.3c0.6,0,1,-0.1,1.3,-0.4c0.2,-0.2,0.4,-0.4,0.4,-0.8c0,-0.3,-0.1,-0.5,-0.3,-0.7c-0.2,-0.2,-0.6,-0.3,-1.2,-0.3l-0.8,-0.1c-0.8,-0.1,-1.3,-0.3,-1.7,-0.7c-0.4,-0.4,-0.6,-0.8,-0.6,-1.5c0,-0.7,0.3,-1.3,0.8,-1.7c0.4,-0.4,1.1,-0.6,2,-0.6c0.6,0,1.1,0.1,1.6,0.3c0.4,0.1,0.8,0.3,1.1,0.6c0.1,0,0.1,0.1,0.1,0.2l-0.6,0.7c0,0,-0.1,0,-0.2,0c-0.2,-0.2,-0.5,-0.3,-0.9,-0.4c-0.4,-0.2,-0.7,-0.2,-1.1,-0.2c-0.5,0,-0.9,0.1,-1.1,0.3c-0.3,0.2,-0.4,0.4,-0.4,0.7c0,0.3,0.1,0.6,0.3,0.7c0.2,0.2,0.6,0.3,1.2,0.4l0.8,0c0.8,0.1,1.4,0.3,1.7,0.7c0.4,0.4,0.6,0.9,0.6,1.5c0,0.7,-0.3,1.3,-0.8,1.8c-0.5,0.4,-1.3,0.7,-2.3,0.7Z" class="g3_1" />
<path d="M496.9,1039.4c-0.6,0.3,-1.3,0.4,-2,0.5c0.8,-0.4,1.3,-1.1,1.6,-1.9c-0.7,0.4,-1.4,0.7,-2.2,0.9c-0.7,-0.7,-1.6,-1.1,-2.5,-1.1c-1.9,0,-3.5,1.5,-3.5,3.4c0,0.3,0.1,0.5,0.1,0.8c-2.8,-0.1,-5.4,-1.5,-7.1,-3.6c-0.3,0.5,-0.4,1.1,-0.4,1.7c0,1.2,0.6,2.3,1.5,2.9c-0.6,0,-1.1,-0.2,-1.6,-0.4c0,1.7,1.2,3.1,2.8,3.4c-0.3,0.1,-0.6,0.1,-0.9,0.1c-0.2,0,-0.5,0,-0.7,-0.1c0.5,1.4,1.7,2.4,3.2,2.4c-1.1,0.9,-2.6,1.5,-4.2,1.5c-0.3,0,-0.6,0,-0.8,0c1.5,0.9,3.3,1.5,5.2,1.5c6.4,0,9.8,-5.2,9.8,-9.8c0,-0.1,0,-0.3,0,-0.4c0.7,-0.5,1.3,-1.1,1.7,-1.8Z" class="g3_1" />
<path d="M513.4,1047.1c0.3,0.7,0.7,1,1.5,1c0.7,0,1.2,-0.3,1.4,-1c0.1,-0.1,0.1,-0.3,0.1,-0.5c0,-0.2,0,-0.4,0,-0.7c0,-0.3,0,-0.6,0,-0.8c0,-0.2,0,-0.3,-0.1,-0.5c-0.2,-0.6,-0.7,-1,-1.4,-1c-0.8,0,-1.2,0.4,-1.5,1c0,0.2,0,0.3,-0.1,0.5c0,0.2,0,0.5,0,0.8c0,0.3,0,0.5,0,0.7c0.1,0.2,0.1,0.4,0.1,0.5m-4.7,-1.3c0,-0.9,0.1,-1.8,0.5,-2.5c0.3,-0.8,0.7,-1.4,1.2,-2c0.6,-0.5,1.2,-1,2,-1.3c0.8,-0.3,1.6,-0.4,2.6,-0.4c0.9,0,1.7,0.1,2.5,0.4c0.7,0.3,1.4,0.8,2,1.3c0.5,0.6,0.9,1.2,1.2,2c0.3,0.7,0.5,1.6,0.5,2.5c0,0.6,-0.1,1.1,-0.2,1.5c-0.1,0.4,-0.3,0.8,-0.6,1.1c-0.2,0.2,-0.5,0.4,-0.8,0.6c-0.3,0.1,-0.6,0.2,-0.9,0.2c-0.5,0,-0.9,-0.1,-1.2,-0.3c-0.3,-0.3,-0.6,-0.5,-0.7,-0.9c-0.2,0.4,-0.5,0.7,-0.8,0.9c-0.4,0.2,-0.8,0.2,-1.4,0.2c-1.1,0,-1.9,-0.5,-2.2,-1.5c-0.1,-0.2,-0.1,-0.5,-0.2,-0.7c0,-0.3,0,-0.6,0,-1c0,-0.5,0,-0.8,0,-1.1c0.1,-0.2,0.1,-0.4,0.2,-0.7c0.1,-0.5,0.4,-0.9,0.8,-1.1c0.4,-0.3,0.8,-0.4,1.4,-0.4c0.5,0,0.9,0.1,1.2,0.2c0.3,0.2,0.5,0.4,0.6,0.6l0,-0.5c0,-0.1,0.1,-0.2,0.2,-0.2l0.8,0c0.1,0,0.1,0.1,0.1,0.2l0,3.9c0,0.5,0.2,0.8,0.4,1c0.2,0.2,0.5,0.3,0.8,0.3c0.2,0,0.3,0,0.5,-0.1c0.2,-0.1,0.3,-0.2,0.5,-0.4c0.1,-0.1,0.2,-0.4,0.3,-0.7c0,-0.3,0.1,-0.7,0.1,-1.1c0,-0.8,-0.2,-1.5,-0.4,-2.1c-0.2,-0.6,-0.6,-1.2,-1,-1.7c-0.5,-0.4,-1,-0.8,-1.6,-1c-0.7,-0.3,-1.4,-0.4,-2.1,-0.4c-0.8,0,-1.5,0.1,-2.2,0.4c-0.6,0.2,-1.1,0.6,-1.6,1c-0.4,0.5,-0.8,1,-1,1.7c-0.3,0.6,-0.4,1.3,-0.4,2.1c0,0.8,0.1,1.5,0.4,2.1c0.2,0.6,0.6,1.2,1,1.7c0.5,0.4,1,0.8,1.6,1c0.7,0.3,1.4,0.4,2.2,0.4c0.7,0,1.4,-0.1,1.9,-0.2c0.5,-0.1,1,-0.3,1.5,-0.5c0.1,-0.1,0.2,-0.1,0.2,0l0.2,0.7c0.1,0,0.1,0.1,0,0.2c-0.6,0.2,-1.1,0.5,-1.7,0.6c-0.6,0.1,-1.3,0.2,-2.1,0.2c-1,0,-1.8,-0.1,-2.6,-0.4c-0.8,-0.3,-1.4,-0.8,-2,-1.3c-0.5,-0.6,-0.9,-1.2,-1.2,-2c-0.4,-0.8,-0.5,-1.6,-0.5,-2.5Z" class="g3_1" />
<path d="M528.2,1044.4c0.7,0,1.2,-0.2,1.6,-0.5c0.3,-0.4,0.5,-0.8,0.5,-1.4c0,-0.6,-0.2,-1.1,-0.5,-1.4c-0.4,-0.4,-0.9,-0.5,-1.6,-0.5l-2.4,0c-0.1,0,-0.1,0,-0.1,0.1l0,3.6c0,0,0,0.1,0.1,0.1Zm-3.8,5.6c-0.1,0,-0.1,0,-0.1,-0.1l0,-10.5c0,-0.1,0,-0.1,0.1,-0.1l3.9,0c0.5,0,1,0,1.4,0.2c0.4,0.1,0.8,0.4,1.1,0.6c0.3,0.3,0.5,0.7,0.7,1.1c0.1,0.3,0.2,0.8,0.2,1.3c0,0.5,-0.1,0.9,-0.2,1.3c-0.2,0.4,-0.4,0.7,-0.7,1c-0.3,0.3,-0.7,0.5,-1.1,0.7c-0.4,0.1,-0.9,0.2,-1.4,0.2l-2.5,0c-0.1,0,-0.1,0,-0.1,0.1l0,4.1c0,0.1,0,0.1,-0.2,0.1Z" class="g3_1" />
<path d="M536.8,1049.1c0.6,0,1,-0.2,1.4,-0.4c0.3,-0.3,0.5,-0.6,0.5,-1.1l0,-0.9c0,0,-0.1,-0.1,-0.1,-0.1l-1.5,0c-0.7,0,-1.2,0.1,-1.5,0.3c-0.3,0.2,-0.4,0.5,-0.4,1c0,0.4,0.1,0.7,0.4,0.9c0.3,0.2,0.6,0.3,1.2,0.3m2.1,0.9c-0.1,0,-0.2,0,-0.2,-0.1l0,-0.7c-0.2,0.3,-0.5,0.5,-0.8,0.7c-0.4,0.2,-0.9,0.3,-1.5,0.3c-0.3,0,-0.7,0,-1,-0.1c-0.3,-0.1,-0.6,-0.3,-0.8,-0.5c-0.2,-0.2,-0.4,-0.4,-0.5,-0.7c-0.1,-0.3,-0.2,-0.6,-0.2,-1c0,-0.8,0.2,-1.4,0.8,-1.8c0.5,-0.3,1.2,-0.5,2.1,-0.5l1.8,0c0,0,0.1,-0.1,0.1,-0.1l0,-0.6c0,-0.5,-0.2,-0.9,-0.4,-1.1c-0.3,-0.2,-0.7,-0.4,-1.5,-0.4c-0.4,0,-0.7,0.1,-1,0.2c-0.3,0.1,-0.6,0.2,-0.8,0.4c-0.1,0.1,-0.2,0.1,-0.2,0l-0.4,-0.8c-0.1,0,-0.1,-0.1,0,-0.2c0.3,-0.2,0.6,-0.4,1.1,-0.5c0.4,-0.2,0.9,-0.2,1.5,-0.2c1.1,0,1.8,0.2,2.3,0.6c0.4,0.4,0.7,1,0.7,2l0,5c0,0.1,-0.1,0.1,-0.2,0.1Z" class="g3_1" />
<path d="M545.3,1050.1c-0.7,0,-1.2,-0.1,-1.5,-0.5c-0.3,-0.3,-0.4,-0.8,-0.4,-1.5l0,-8.7c0,-0.1,0.1,-0.1,0.2,-0.1l1,0c0.1,0,0.1,0,0.1,0.1l0,8.6c0,0.4,0.1,0.6,0.2,0.7c0.1,0.1,0.3,0.2,0.6,0.2l0.3,0c0.1,0,0.2,0,0.2,0.1l0,1c0,0.1,-0.1,0.1,-0.2,0.1Z" class="g3_1" />
<path d="M551.3,1049.1c0.6,0,1,-0.2,1.4,-0.4c0.3,-0.3,0.5,-0.6,0.5,-1.1l0,-0.9c0,0,0,-0.1,-0.1,-0.1l-1.5,0c-0.7,0,-1.2,0.1,-1.5,0.3c-0.3,0.2,-0.4,0.5,-0.4,1c0,0.4,0.1,0.7,0.4,0.9c0.3,0.2,0.7,0.3,1.2,0.3m2.1,0.9c-0.1,0,-0.2,0,-0.2,-0.1l0,-0.7c-0.2,0.3,-0.5,0.5,-0.8,0.7c-0.4,0.2,-0.9,0.3,-1.5,0.3c-0.3,0,-0.6,0,-1,-0.1c-0.3,-0.1,-0.5,-0.3,-0.8,-0.5c-0.2,-0.2,-0.4,-0.4,-0.5,-0.7c-0.1,-0.3,-0.2,-0.6,-0.2,-1c0,-0.8,0.3,-1.4,0.8,-1.8c0.5,-0.3,1.2,-0.5,2.2,-0.5l1.7,0c0.1,0,0.1,-0.1,0.1,-0.1l0,-0.6c0,-0.5,-0.1,-0.9,-0.4,-1.1c-0.3,-0.2,-0.7,-0.4,-1.4,-0.4c-0.5,0,-0.8,0.1,-1.1,0.2c-0.3,0.1,-0.6,0.2,-0.8,0.4c-0.1,0.1,-0.1,0.1,-0.2,0l-0.4,-0.8c-0.1,0,-0.1,-0.1,0,-0.2c0.3,-0.2,0.7,-0.4,1.1,-0.5c0.4,-0.2,0.9,-0.2,1.5,-0.2c1.1,0,1.8,0.2,2.3,0.6c0.4,0.4,0.7,1,0.7,2l0,5c0,0.1,-0.1,0.1,-0.2,0.1Z" class="g3_1" />
<path d="M562.9,1050c-0.1,0,-0.2,0,-0.2,-0.1l0,-4.5c0,-0.6,-0.1,-1,-0.4,-1.4c-0.3,-0.3,-0.7,-0.5,-1.3,-0.5c-0.5,0,-0.9,0.2,-1.2,0.5c-0.4,0.3,-0.5,0.8,-0.5,1.4l0,4.5c0,0.1,-0.1,0.1,-0.2,0.1l-1,0c-0.1,0,-0.1,0,-0.1,-0.1l0,-7.3c0,-0.1,0,-0.2,0.1,-0.2l1,0c0.1,0,0.2,0.1,0.2,0.2l0,0.7c0.2,-0.3,0.4,-0.5,0.8,-0.7c0.4,-0.2,0.8,-0.3,1.3,-0.3c0.8,0,1.5,0.2,2,0.7c0.4,0.6,0.7,1.3,0.7,2.1l0,4.8c0,0.1,-0.1,0.1,-0.2,0.1Z" class="g3_1" />
<path d="M569.7,1050.1c-0.7,0,-1.2,-0.2,-1.6,-0.5c-0.3,-0.3,-0.4,-0.9,-0.4,-1.6l0,-4.4c0,0,-0.1,-0.1,-0.1,-0.1l-0.6,0c-0.2,0,-0.2,0,-0.2,-0.1l0,-0.8c0,-0.1,0,-0.2,0.2,-0.2l0.6,0c0,0,0.1,0,0.1,0l0,-2.2c0,-0.1,0,-0.1,0.1,-0.1l1.1,0c0.1,0,0.1,0,0.1,0.1l0,2.2l0.1,0l1.2,0c0.1,0,0.2,0.1,0.2,0.2l0,0.8c0,0.1,-0.1,0.1,-0.2,0.1l-1.2,0c-0.1,0,-0.1,0.1,-0.1,0.1l0,4.3c0,0.4,0.1,0.6,0.2,0.8c0.2,0.1,0.4,0.2,0.8,0.2l0.3,0c0.1,0,0.2,0,0.2,0.1l0,1c0,0.1,-0.1,0.1,-0.2,0.1Z" class="g3_1" />
<path d="M573.6,1050c-0.1,0,-0.1,0,-0.1,-0.1l0,-7.3c0,-0.1,0,-0.2,0.1,-0.2l1,0c0.2,0,0.2,0.1,0.2,0.2l0,7.3c0,0.1,0,0.1,-0.2,0.1Zm0,-9.3c-0.1,0,-0.2,0,-0.2,-0.1l0,-1.2c0,-0.1,0.1,-0.1,0.2,-0.1l1.1,0c0.1,0,0.1,0,0.1,0.1l0,1.2c0,0.1,0,0.1,-0.1,0.1Z" class="g3_1" />
<path d="M578.5,1050c-0.1,0,-0.1,0,-0.1,-0.1l0,-7.3c0,-0.1,0,-0.2,0.1,-0.2l1,0c0.1,0,0.2,0.1,0.2,0.2l0,0.8c0.2,-0.3,0.4,-0.6,0.8,-0.8c0.3,-0.2,0.7,-0.3,1.2,-0.3c0.3,0,0.6,0,0.9,0.1c0.3,0.1,0.5,0.3,0.7,0.4c0,0.1,0.1,0.2,0,0.3l-0.6,0.7c0,0.1,-0.1,0.1,-0.2,0.1c-0.2,-0.1,-0.4,-0.2,-0.6,-0.3c-0.1,-0.1,-0.4,-0.1,-0.6,-0.1c-0.6,0,-1,0.2,-1.2,0.6c-0.3,0.4,-0.4,1,-0.4,1.6l0,4.2c0,0.1,-0.1,0.1,-0.2,0.1Z" class="g3_1" />
<path d="M589.6,1050.2c-1.2,0,-2.2,-0.3,-2.8,-1c-0.7,-0.7,-1,-1.6,-1,-2.9l0,-6.9c0,-0.1,0,-0.1,0.1,-0.1l1.1,0c0.1,0,0.2,0,0.2,0.1l0,6.9c0,0.8,0.2,1.5,0.6,1.9c0.5,0.5,1.1,0.7,1.8,0.7c0.7,0,1.3,-0.2,1.7,-0.7c0.4,-0.4,0.7,-1.1,0.7,-1.9l0,-6.9c0,-0.1,0,-0.1,0.1,-0.1l1.1,0c0.1,0,0.2,0,0.2,0.1l0,6.9c0,1.3,-0.3,2.2,-1,2.9c-0.7,0.7,-1.6,1,-2.8,1Z" class="g3_1" />
<text 
x="166" 
y="323" 
dx="0,0,0,0,0,0,0,0,0,0,0,0,0,0,0,0,0,0,0,0,0,0,0" 
class="s1_1"
>Canteen | DIKU building</text>

<text 
x="167" 
y="389" 
dx="0,-0.1,-0.1,-0.1,-0.1,0.1,-0.1,-0.1,-0.1,-0.1,-0.1,-0.1,-0.1,-0.1,-0.1,-0.1" 
class="s1_1"
>Wed, December 7t</text>

<text 
x="310" 
y="389" 
dx="0" 
class="s2_1"
>h</text>

<text 
x="167" 
y="457" 
dx="0" 
class="s1_1"
>5</text>

<text 
x="177" 
y="457" 
dx="0" 
class="s2_1"
>:</text>

<text 
x="182" 
y="457" 
dx="0,0" 
class="s1_1"
>30</text>

<text 
x="206" 
y="457" 
dx="0,0,0,0" 
class="s2_1"
>— 7:</text>

<text 
x="240" 
y="457" 
dx="0,0" 
class="s1_1"
>30</text>

<text 
x="265" 
y="457" 
dx="0,0" 
class="s2_1"
>PM</text>

<text 
x="167" 
y="515" 
dx="0,0,0,0,0,0,0" 
class="s1_1"
>Dinner </text>

<text 
x="225" 
y="515" 
dx="0,0,0,0,0,0,0,0,0,0,0,0.1,0.1,0.1" 
class="s2_1"
>and swag will </text>

<text 
x="167" 
y="541" 
dx="0,0.1,0.1,-0.1,0.1,0.1,0.1,0.1,0.1,0.1,0.1" 
class="s2_1"
>be provided</text>

<path d="M144.9,305.8c2.2,0.8,3.9,2.5,4.7,4.7l6.1,-10.8Z" class="g3_1" />
<path d="M134.5,316.1l-6,10.8l10.8,-6c-2.2,-0.8,-3.9,-2.6,-4.8,-4.8Z" class="g3_1" />
<path d="M142.1,310.5c-1.6,0,-2.9,1.2,-2.9,2.8c0,1.6,1.3,2.9,2.9,2.9c1.6,0,2.9,-1.3,2.9,-2.9c0,-1.6,-1.3,-2.8,-2.9,-2.8Z" class="g3_1" />
<path d="M142.1,317.5c-2.3,0,-4.2,-1.9,-4.2,-4.2c0,-2.3,1.9,-4.2,4.2,-4.2c2.3,0,4.2,1.9,4.2,4.2c0,2.3,-1.9,4.2,-4.2,4.2m0,-10.3c-3.4,0,-6.1,2.8,-6.1,6.1c0,3.4,2.7,6.1,6.1,6.1c3.4,0,6.1,-2.7,6.1,-6.1c0,-3.3,-2.7,-6.1,-6.1,-6.1Z" class="g3_1" />
<path d="M139.5,446.5l0,-8" class="g4_1" />
<path d="M132.6,445.8l-2.5,-2.5l1,-1l2.5,2.5Z" class="g3_1" />
<path d="M126.5,453.5l4,0" class="g4_1" />
<path d="M131.5,463.7l-1,-1l2.7,-2.7l1.1,1Z" class="g3_1" />
<path d="M140.5,467.5l0,-4" class="g4_1" />
<path d="M148.9,461.3l-5,-5l1.1,-1l4.9,4.9Z" class="g3_1" />
<path d="M150.5,453.5l5,0" class="g4_1" />
<path d="M149,445.4l-1,-1.1l2.5,-2.5l1,1.1Z" class="g3_1" />
<path d="M140.7,449.8c-1.6,0,-2.9,1.3,-2.9,2.9c0,1.6,1.3,2.9,2.9,2.9c1.6,0,2.9,-1.3,2.9,-2.9c0,-1.6,-1.3,-2.9,-2.9,-2.9Z" class="g3_1" />
<path d="M140.7,456.9c-2.3,0,-4.2,-1.9,-4.2,-4.2c0,-2.4,1.9,-4.3,4.2,-4.3c2.3,0,4.2,1.9,4.2,4.3c0,2.3,-1.9,4.2,-4.2,4.2m0,-10.4c-3.4,0,-6.2,2.8,-6.2,6.2c0,3.4,2.8,6.1,6.2,6.1c3.4,0,6.1,-2.7,6.1,-6.1c0,-3.4,-2.7,-6.2,-6.1,-6.2Z" class="g3_1" />
<path d="M152,374l-24,0l0,-2l24,0l0,2Z" class="g3_1" />
<path d="M133,380l-5,0l0,-4l5,0l0,4Z" class="g3_1" />
<path d="M139,380l-4,0l0,-4l4,0l0,4Z" class="g3_1" />
<path d="M145,380l-4,0l0,-4l4,0l0,4Z" class="g3_1" />
<path d="M152,380l-4,0l0,-4l4,0l0,4Z" class="g3_1" />
<path d="M133,386l-5,0l0,-4l5,0l0,4Z" class="g3_1" />
<path d="M139,386l-4,0l0,-4l4,0l0,4Z" class="g3_1" />
<path d="M145,386l-4,0l0,-4l4,0l0,4Z" class="g3_1" />
<path d="M152,386l-4,0l0,-4l4,0l0,4Z" class="g3_1" />
<path d="M133,392l-5,0l0,-4l5,0l0,4Z" class="g3_1" />
<path d="M139,392l-4,0l0,-4l4,0l0,4Z" class="g3_1" />
<path d="M145,392l-4,0l0,-4l4,0l0,4Z" class="g3_1" />
<path d="M148,392l0,-4l4,0Z" class="g3_1" />
<path d="M141.3,516.3c-1.8,0,-3.2,1.5,-3.2,3.2c0,1.8,1.4,3.2,3.2,3.2c1.8,0,3.2,-1.4,3.2,-3.2c0,-1.7,-1.4,-3.2,-3.2,-3.2Z" class="g3_1" />
<path d="M141.3,524.2c-2.6,0,-4.7,-2.1,-4.7,-4.7c0,-2.6,2.1,-4.7,4.7,-4.7c2.6,0,4.7,2.1,4.7,4.7c0,2.6,-2.1,4.7,-4.7,4.7m0,-11.5c-3.8,0,-6.8,3.1,-6.8,6.8c0,3.8,3,6.8,6.8,6.8c3.8,0,6.8,-3,6.8,-6.8c0,-3.7,-3,-6.8,-6.8,-6.8Z" class="g3_1" />
<path d="M141.3,528.1c-0.9,0,-1.7,-0.2,-2.6,-0.5l0,8.5l2.6,-3.3l2.6,3.3l0,-8.5c-0.8,0.3,-1.7,0.5,-2.6,0.5Z" class="g3_1" />
<text 
x="479" 
y="436" 
dx="0,-1.7,0,0,0,-1.1,0,0,0,0,0,0,0,0,0,0,0,0,0,0,0,0,0,0,0,0,0,0,0,0,0,0,0,0" 
class="s2_1"
>Today, timely access to the right </text>

<text 
x="735" 
y="436" 
dx="0,0,0,0,0,0,0,0,0,0,0,0,0,0,0,0" 
class="s1_1"
>information can </text>

<text 
x="479" 
y="463" 
dx="0,0,0,0,0,0,0,0,0,0,0,0,0,0,0,0,0,0,0" 
class="s1_1"
>make the diﬀerence </text>

<text 
x="641" 
y="463" 
dx="0,0,0,0,0,0,0,0,0,0,0,0,0,0,0,0,0,0,0,0,0,0,0,0,0,0,0,0,0" 
class="s2_1"
>between life and death. Each </text>

<text 
x="479" 
y="490" 
dx="0,0,0,0,0,0,0,0,0,0,0,0,0,0,0,0,0,0,0,0,0,0,0,0,0,0,0,0,0,0,0,0,0,0,0,0,0,0,0,0,0,0,0,0,0,0,0,0,0" 
class="s2_1"
>day brings new headlines of tragedy that beg the </text>

<text 
x="479" 
y="517" 
dx="0,0,0,0,0,0,0,0,0,0,0,0,0,0,0,0,0,0,0,0,0,0,0,0,0,0,-0.3,-0.3,-0.3,-0.3,-0.3,-0.3,-0.3,-0.3,-0.3,-0.3,-0.3,-0.3,-0.3" 
class="s2_1"
>question: could we have prevented this?</text>

<text 
x="479" 
y="567" 
dx="0,0,0,0,0,0,0,0,0,0,0,0,0,0,0,0,0,0,0,0,0,0,0,0,0,0,0,0,0,0,0,0,0,0,0,0,0,0,0,0,0,0,0,0,0,0,0" 
class="s2_1"
>This tide of violence and unrest threatens our </text>

<text 
x="479" 
y="593" 
dx="0,0,0,0,0,0,0,0,0,0,0,0,0,0,0,0,0,0,0,0,0,0,0,0,0,0,0,0,0,0,0,0,0,0,0,0,0,0,0,0,0,0,0,0,0,0,-1.9,0,0,0,0,-1.1,0,0" 
class="s2_1"
>ability to live safely and freely. At Palantir, we’re </text>

<text 
x="479" 
y="620" 
dx="0,0,0,0,0,0,0,0,0,0,0,0,0,0,0,0,0,0,0,0,0,0,0,0,0,0" 
class="s2_1"
>ready to stop it. Are you?</text>

<text 
x="479" 
y="676" 
dx="0,0,0,0,0,0,0,0,0,0,0,0,0,0,0,0,0,0,0,0,0,0,0,0,0,0,0,0,0,0,0,0,0,0,0,0" 
class="s1_1"
>Come join us at our hands-on problem</text>

<text 
x="479" 
y="702" 
dx="0,0,0,0,0,0,0,0,0,0,0,0,0,0,0,0,0,0,0,0,0,0,0,0,0,0,0,0,0,0,0,0,0,0,0,0,0,0,0,0,0,0,0,0,0,0,0,0,0" 
class="s1_1"
>solving event and learn from full-time engineers </text>

<text 
x="479" 
y="729" 
dx="0,0,0,0,0,0,0,0,0,0,0,0,0,0,0,0,0,0,0,0,0,0,0,0,0,0,0,0,0,0,0,0,0,0,0,0,0,0,0,0,0" 
class="s1_1"
>how we approach problems like terrorism, </text>

<text 
x="479" 
y="755" 
dx="0,0,0,0,0,0,0,0,0,0,0,0,0,0,0,0,0,0,0,0,0,0,0,0,0,0,0,0,0,0,0,0,0,0,0,0,0,0,0,0,0,0,0,0,0,0,0,0,0,0,0,0,0" 
class="s1_1"
>violence, fraud, disaster relief, insider threat and </text>

<text 
x="479" 
y="781" 
dx="0,0,0,0,0,0,0,0,0,0,0,0,0,0,0,0,0,0,0,0,0,0,0,0,0,0,0,0,0,0,0,0,0,0,0,0,0,0,0,0,0,0,0,0" 
class="s1_1"
>more. We’ll explore real-world examples and </text>

<text 
x="479" 
y="807" 
dx="0,0,0,0,0,0,0,0,0,0,0,0,0,0,0,0,0,0,0,0,0,0,0,0,0,0,0,0,0,0,0,0,0,0,0,0,0,0,0,0" 
class="s1_1"
>challenge you to come up with solutions.</text>

<text 
x="479" 
y="861" 
dx="0,0,0,0,0,0,0,0,0,0,0,0,0,0,0,0,0,0,0,0,0,0,0,0,0,0,0,0,0,0,0,0,0,0,0,0,0,0,0,0,0,0,0,0,0,0,0,0,0,0,0" 
class="s1_1"
>The event is open for the first 50 students at the </text>

<text 
x="479" 
y="888" 
dx="0,0,0,0,0,0" 
class="s1_1"
>door. </text>

<path d="M847,272l-368,0l0,-1l368,0l0,1Z" class="g3_1" />
<path d="M847,920l-368,0l0,-2l368,0l0,2Z" class="g3_1" />
<path d="M480.5,376.7c-0.3,-0.9,-0.5,-1.8,-0.7,-2.6c-0.2,-0.9,-0.4,-1.8,-0.5,-2.8c-0.1,-1,-0.2,-2.2,-0.2,-3.5C479,366.5,479,365,479,363.3c0,-1.8,0,-3.3,0.1,-4.6c0,-1.3,0.1,-2.4,0.2,-3.5c0.1,-1,0.3,-1.9,0.5,-2.8c0.2,-0.8,0.4,-1.7,0.7,-2.6c1.3,-4.1,3.6,-7.1,6.7,-9.2c3.2,-2,7,-3,11.7,-3c4.6,0,8.5,1,11.7,3c3.1,2,5.3,4.9,6.7,8.7c0.2,0.4,0.1,0.8,-0.4,1l-11.7,5c-0.5,0.3,-0.9,0.1,-1,-0.5c-0.6,-1.3,-1.2,-2.2,-1.9,-2.8c-0.8,-0.6,-1.8,-0.9,-3,-0.9c-2.2,0,-3.6,1,-4.3,3c-0.1,0.3,-0.2,0.7,-0.2,1c-0.1,0.4,-0.2,0.9,-0.2,1.6c-0.1,0.6,-0.1,1.5,-0.1,2.5c0,1.1,-0.1,2.4,-0.1,4.1c0,1.6,0.1,3,0.1,4c0,1.1,0,1.9,0.1,2.6c0,0.6,0.1,1.1,0.2,1.5c0,0.4,0.1,0.7,0.2,1c0.7,2,2.1,3,4.3,3c1.2,0,2.2,-0.3,3,-0.9c0.7,-0.6,1.3,-1.5,1.9,-2.8c0.1,-0.6,0.5,-0.7,1,-0.5l11.7,5c0.5,0.2,0.6,0.6,0.4,1.1c-1.4,3.7,-3.6,6.6,-6.7,8.6c-3.2,2,-7.1,3,-11.7,3c-4.7,0,-8.5,-1,-11.7,-3c-3.1,-2.1,-5.4,-5.1,-6.7,-9.2Z" class="g3_1" />
<path d="M538.5,375.4c1.1,0,2.1,-0.3,2.9,-0.8c0.9,-0.6,1.5,-1.3,1.8,-2.4c0.2,-0.7,0.4,-1.8,0.5,-3.1c0,-1.3,0.1,-3.2,0.1,-5.8c0,-1.4,0,-2.5,-0.1,-3.4c0,-1,0,-1.8,0,-2.5c-0.1,-0.7,-0.1,-1.3,-0.2,-1.8c-0.1,-0.5,-0.2,-0.9,-0.3,-1.3c-0.3,-1,-0.9,-1.8,-1.8,-2.3c-0.8,-0.6,-1.8,-0.9,-2.9,-0.9c-1.1,0,-2.1,0.3,-2.9,0.9c-0.8,0.5,-1.4,1.3,-1.7,2.3c-0.2,0.4,-0.3,0.8,-0.4,1.3c0,0.5,-0.1,1.1,-0.1,1.8c0,0.7,-0.1,1.5,-0.1,2.5c0,0.9,0,2,0,3.4c0,2.6,0,4.5,0.1,5.8c0.1,1.3,0.2,2.4,0.5,3.1c0.3,1.1,0.9,1.8,1.7,2.4c0.8,0.5,1.8,0.8,2.9,0.8m0,13.5c-2.2,0,-4.3,-0.2,-6.4,-0.7c-2,-0.5,-3.8,-1.3,-5.5,-2.3c-1.7,-1,-3.1,-2.3,-4.4,-3.8c-1.2,-1.6,-2.2,-3.4,-2.9,-5.5c-0.3,-1,-0.6,-2,-0.8,-2.9c-0.2,-1,-0.3,-2,-0.4,-3c-0.2,-1,-0.2,-2.1,-0.3,-3.3c0,-1.2,0,-2.6,0,-4.1c0,-1.6,0,-3,0,-4.2c0.1,-1.2,0.1,-2.3,0.3,-3.3c0.1,-1,0.2,-2,0.4,-2.9c0.2,-1,0.5,-2,0.8,-3c0.7,-2.1,1.7,-3.9,2.9,-5.4c1.3,-1.6,2.7,-2.8,4.4,-3.9c1.7,-1,3.5,-1.7,5.5,-2.3c2.1,-0.5,4.2,-0.7,6.4,-0.7c2.3,0,4.4,0.2,6.4,0.7c2,0.6,3.9,1.3,5.6,2.3c1.6,1.1,3.1,2.3,4.3,3.9c1.3,1.5,2.2,3.3,2.9,5.4c0.4,1,0.6,2,0.8,3c0.2,0.9,0.4,1.9,0.5,2.9c0.1,1,0.1,2.1,0.2,3.3c0,1.2,0,2.6,0,4.2c0,1.5,0,2.9,0,4.1c-0.1,1.2,-0.1,2.3,-0.2,3.3c-0.1,1,-0.3,2,-0.5,3c-0.2,0.9,-0.4,1.9,-0.8,2.9c-0.7,2.1,-1.6,3.9,-2.9,5.5c-1.2,1.5,-2.7,2.8,-4.3,3.8c-1.7,1,-3.6,1.8,-5.6,2.3c-2,0.5,-4.1,0.7,-6.4,0.7Z" class="g3_1" />
<path d="M563.2,339.2c0,-0.5,0.2,-0.8,0.7,-0.8l13.2,0c0.3,0,0.5,0.1,0.8,0.2c0.2,0.1,0.4,0.3,0.5,0.6l10.2,23.1l0.3,0l9.9,-23.1c0.1,-0.3,0.3,-0.5,0.5,-0.6c0.3,-0.1,0.5,-0.2,0.7,-0.2l13.1,0c0.5,0,0.7,0.3,0.7,0.8l0,48.1c0,0.5,-0.2,0.8,-0.7,0.8l-12.3,0c-0.5,0,-0.8,-0.3,-0.8,-0.8l0,-22.7l-0.3,0l-6.6,15.7c-0.2,0.4,-0.4,0.7,-0.7,0.8c-0.3,0.1,-0.5,0.2,-0.7,0.2l-6.4,0c-0.2,0,-0.4,-0.1,-0.7,-0.2c-0.2,-0.1,-0.4,-0.4,-0.7,-0.8l-6.6,-15.7l-0.3,0l0,22.7c0,0.5,-0.3,0.8,-0.7,0.8l-12.4,0c-0.5,0,-0.7,-0.3,-0.7,-0.8Z" class="g3_1" />
<path d="M618.8,339.2c0,-0.5,0.2,-0.8,0.7,-0.8l33.2,0c0.5,0,0.8,0.3,0.8,0.8l0,11.2c0,0.5,-0.3,0.7,-0.8,0.7l-18.3,0c-0.3,0,-0.4,0.2,-0.4,0.5l0,4.8c0,0.3,0.1,0.4,0.4,0.4l14.7,0c0.5,0,0.7,0.3,0.7,0.8l0,10.9c0,0.5,-0.2,0.7,-0.7,0.7l-14.7,0c-0.3,0,-0.4,0.2,-0.4,0.5l0,5.2c0,0.3,0.1,0.5,0.4,0.5l18.3,0c0.5,0,0.8,0.2,0.8,0.7l0,11.2c0,0.5,-0.3,0.8,-0.8,0.8l-33.2,0c-0.5,0,-0.7,-0.3,-0.7,-0.8Z" class="g3_1" />
<path d="M669.1,339.2c0,-0.5,0.2,-0.8,0.7,-0.8l33.2,0c0.5,0,0.7,0.3,0.7,0.8l0,11.2c0,0.5,-0.2,0.7,-0.7,0.7l-18.3,0c-0.3,0,-0.4,0.2,-0.4,0.5l0,5.5c0,0.3,0.1,0.5,0.4,0.5l14.7,0c0.4,0,0.7,0.2,0.7,0.7l0,10.9c0,0.5,-0.3,0.8,-0.7,0.8l-14.7,0c-0.3,0,-0.4,0.1,-0.4,0.4l0,16.9c0,0.5,-0.3,0.8,-0.8,0.8l-13.7,0c-0.5,0,-0.7,-0.3,-0.7,-0.8Z" class="g3_1" />
<path d="M708.9,339.2c0,-0.5,0.3,-0.8,0.7,-0.8l13.9,0c0.5,0,0.7,0.3,0.7,0.8l0,48.1c0,0.5,-0.2,0.8,-0.7,0.8l-13.9,0c-0.4,0,-0.7,-0.3,-0.7,-0.8Z" class="g3_1" />
<path d="M757.2,388.1c-0.6,0,-1,-0.3,-1.3,-0.8l-6.5,-11.2l-0.2,0l-6.5,11.2c-0.3,0.5,-0.7,0.8,-1.3,0.8l-14.8,0c-0.2,0,-0.4,-0.1,-0.4,-0.2c-0.1,-0.2,-0.1,-0.4,0,-0.6l14.9,-24.8l-14,-23.3C727,339,727,338.8,727,338.7c0.1,-0.2,0.3,-0.2,0.5,-0.2l14.8,0c0.5,0,1,0.2,1.3,0.7l5.6,9.8l0.2,0l5.6,-9.8c0.3,-0.5,0.8,-0.7,1.3,-0.7l14.8,0c0.2,0,0.4,0,0.5,0.2c0,0.1,0,0.3,-0.1,0.5l-14,23.3l14.9,24.8c0.1,0.2,0.1,0.4,0,0.6c0,0.1,-0.2,0.2,-0.4,0.2Z" class="g3_1" />
<path d="M786.3,339.2c0,-0.5,0.2,-0.8,0.7,-0.8l13.9,0c0.4,0,0.7,0.3,0.7,0.8l0,48.1c0,0.5,-0.3,0.8,-0.7,0.8l-13.9,0c-0.5,0,-0.7,-0.3,-0.7,-0.8Z" class="g3_1" />
<path d="M818.9,388.1c-0.5,0,-0.7,-0.3,-0.7,-0.8l0,-34.8c0,-0.3,-0.2,-0.5,-0.5,-0.5L806,352c-0.5,0,-0.8,-0.2,-0.8,-0.7l0,-12.1c0,-0.5,0.3,-0.7,0.8,-0.7l39.7,0c0.5,0,0.7,0.2,0.7,0.7l0,12.1c0,0.5,-0.2,0.7,-0.7,0.7l-11.8,0c-0.3,0,-0.4,0.2,-0.4,0.5l0,34.8c0,0.5,-0.3,0.8,-0.8,0.8Z" class="g3_1" />
<path d="M489,301l0,20l-4,0l0,-20l-6,0l0,-4l17,0l0,4Z" class="g3_1" />
<path d="M511,321l0,-10l-8,0l0,10l-5,0l0,-24l5,0l0,10l8,0l0,-10l4,0l0,24Z" class="g3_1" />
<path d="M519,321l0,-24l15,0l0,4l-11,0l0,6l10,0l0,4l-10,0l0,6l11,0l0,4Z" class="g3_1" />
<path d="M568.1,321.4l-4.7,0l-3.8,-15.7l-3.8,15.7l-4.7,0L545.8,298l4.2,0l3.5,16.5L557.4,298l4.4,0l3.9,16.5L569.2,298l4.3,0Z" class="g3_1" />
<path d="M579.2,315.7l0,0.1c0,0,0.1,0,0.1,0c0.2,0.4,0.5,0.7,0.9,1.1c0.3,0.3,0.6,0.5,0.8,0.6c0,0,0.1,0,0.1,0l0.1,0l5.7,0c0.1,0,0.1,0,0.2,0c0.2,-0.1,0.5,-0.3,0.8,-0.6c0.3,-0.4,0.6,-0.7,0.9,-1.1l0,-0.1l0,-11.9l0,-0.1c0,0,0,-0.1,0,-0.1c-0.1,-0.2,-0.3,-0.3,-0.4,-0.5c-0.2,-0.2,-0.3,-0.3,-0.5,-0.5c-0.2,-0.2,-0.3,-0.3,-0.5,-0.4c-0.1,-0.1,-0.2,-0.2,-0.3,-0.3c-0.1,0,-0.1,0,-0.1,0l-0.1,0l-5.7,0l-0.1,0c0,0,-0.1,0,-0.1,0c-0.1,0.1,-0.2,0.2,-0.4,0.3c-0.1,0.1,-0.3,0.2,-0.4,0.4c-0.2,0.2,-0.3,0.3,-0.5,0.5c-0.2,0.2,-0.3,0.3,-0.4,0.5c0,0.1,-0.1,0.1,-0.1,0.2Zm13.7,0.1c0,0.3,0,0.7,-0.1,1.1c-0.1,0.4,-0.2,0.7,-0.5,1.1c-0.1,0.1,-0.3,0.4,-0.5,0.6c-0.3,0.3,-0.5,0.6,-0.8,0.9c-0.3,0.2,-0.6,0.5,-0.8,0.7c-0.3,0.3,-0.5,0.5,-0.7,0.6c-0.4,0.2,-0.7,0.3,-1.2,0.5c-0.4,0.1,-0.9,0.2,-1.3,0.2l-6,0c-0.4,0,-0.8,-0.1,-1.3,-0.2c-0.4,-0.2,-0.8,-0.3,-1.1,-0.5c-0.2,-0.1,-0.4,-0.3,-0.7,-0.6c-0.3,-0.2,-0.6,-0.5,-0.8,-0.7c-0.3,-0.3,-0.6,-0.6,-0.8,-0.9c-0.2,-0.2,-0.4,-0.5,-0.5,-0.6c-0.3,-0.4,-0.4,-0.7,-0.5,-1.1c-0.1,-0.4,-0.2,-0.8,-0.2,-1.1l0,-12.1c0,-0.4,0.1,-0.8,0.2,-1.2c0.1,-0.3,0.2,-0.7,0.5,-1.1c0.1,-0.1,0.3,-0.3,0.5,-0.6c0.2,-0.3,0.5,-0.5,0.8,-0.8c0.2,-0.3,0.5,-0.6,0.8,-0.8c0.3,-0.2,0.5,-0.4,0.7,-0.5c0.3,-0.2,0.7,-0.4,1.1,-0.5c0.5,-0.2,0.9,-0.2,1.3,-0.2l6,0c0.4,0,0.9,0,1.3,0.2c0.5,0.1,0.8,0.3,1.2,0.5c0.2,0.1,0.4,0.3,0.7,0.5c0.2,0.2,0.5,0.5,0.8,0.8c0.3,0.3,0.5,0.5,0.8,0.8c0.2,0.3,0.4,0.5,0.5,0.6c0.3,0.4,0.4,0.8,0.5,1.1c0.1,0.4,0.1,0.8,0.1,1.2Z" class="g3_1" />
<path d="M609.1,303.4l0,-0.1c0,0,0,-0.1,0,-0.1c-0.1,-0.1,-0.2,-0.3,-0.2,-0.4c-0.1,-0.1,-0.3,-0.3,-0.4,-0.4c-0.1,-0.1,-0.2,-0.2,-0.3,-0.3c-0.2,-0.1,-0.3,-0.2,-0.4,-0.2l-7.1,0l0,6.4l7,0c0,0,0.2,-0.1,0.3,-0.2c0.1,0,0.2,-0.1,0.4,-0.3c0.1,-0.1,0.3,-0.2,0.4,-0.4c0.1,-0.1,0.2,-0.3,0.3,-0.4l0,-0.1c0,0,0,-0.1,0,-0.1Zm4.1,3.5c0,0.8,-0.2,1.6,-0.6,2.3c-0.1,0.2,-0.3,0.3,-0.4,0.5c-0.2,0.2,-0.4,0.4,-0.6,0.6c-0.2,0.2,-0.4,0.4,-0.7,0.6c-0.2,0.2,-0.3,0.3,-0.5,0.4c-0.3,0.3,-0.6,0.5,-1,0.6l4.7,9.5l-4.5,0l-4.3,-9.2l-4.6,0l0,9.2l-4.1,0l0,-23.4l11.1,0c0.4,0,0.9,0.1,1.4,0.2c0.5,0.2,0.9,0.4,1.3,0.6c0.2,0.1,0.3,0.3,0.5,0.5c0.3,0.2,0.5,0.4,0.7,0.6c0.2,0.2,0.4,0.4,0.6,0.6c0.1,0.2,0.3,0.4,0.4,0.5c0.2,0.4,0.4,0.8,0.5,1.2c0.1,0.4,0.1,0.8,0.1,1.2Z" class="g3_1" />
<path d="M617,321l0,-24l4,0l0,20l11,0l0,4Z" class="g3_1" />
<path d="M645.5,317.5l0.1,0c0.1,0,0.1,0,0.2,0c0.1,-0.1,0.3,-0.2,0.5,-0.4c0.2,-0.1,0.4,-0.3,0.5,-0.5c0.2,-0.1,0.4,-0.3,0.5,-0.5c0.1,-0.2,0.2,-0.3,0.2,-0.4l0,-11.8l0,-0.1c0,0,0,-0.1,0,-0.1c-0.3,-0.4,-0.6,-0.8,-0.9,-1.1c-0.3,-0.3,-0.6,-0.5,-0.9,-0.7l-0.1,0l-0.2,0l-6.3,0l0,15.6Zm6.1,-1.7c0,0.3,0,0.7,-0.1,1.1c-0.1,0.4,-0.2,0.7,-0.5,1.1c-0.1,0.2,-0.3,0.4,-0.5,0.7c-0.2,0.2,-0.5,0.5,-0.8,0.8c-0.2,0.2,-0.5,0.5,-0.8,0.7c-0.3,0.2,-0.6,0.4,-0.8,0.5c-0.3,0.2,-0.7,0.4,-1.1,0.5c-0.4,0.2,-0.8,0.2,-1.2,0.2l-10.8,0L635,298l10.8,0c0.3,0,0.8,0,1.2,0.2c0.4,0.1,0.8,0.2,1.2,0.5c0.2,0.1,0.4,0.3,0.7,0.5c0.3,0.3,0.6,0.6,0.8,0.8c0.3,0.3,0.6,0.6,0.8,0.9c0.2,0.2,0.4,0.5,0.5,0.6c0.3,0.4,0.4,0.7,0.5,1.1c0.1,0.4,0.1,0.8,0.1,1.1Z" class="g3_1" />
<path d="M662,297l4,0l0,24l-4,0l0,-24Z" class="g3_1" />
<path d="M687.9,315.8c0,0.3,0,0.7,-0.1,1.1c-0.1,0.4,-0.2,0.7,-0.5,1.1c-0.1,0.2,-0.3,0.4,-0.5,0.7c-0.3,0.2,-0.5,0.5,-0.8,0.8c-0.3,0.2,-0.5,0.5,-0.8,0.7c-0.3,0.3,-0.6,0.5,-0.8,0.6c-0.3,0.1,-0.7,0.3,-1.1,0.4c-0.5,0.2,-0.9,0.3,-1.3,0.3l-6.8,0c-0.6,0,-1.1,-0.1,-1.6,-0.3c-0.5,-0.3,-1,-0.5,-1.4,-0.8c-0.4,-0.3,-0.8,-0.7,-1.1,-1.1c-0.3,-0.4,-0.6,-0.7,-0.9,-1.1C670.1,318.1,670.1,318,670,318c0,-0.1,-0.1,-0.2,-0.1,-0.3c-0.1,-0.1,-0.2,-0.2,-0.2,-0.3c-0.1,-0.1,-0.1,-0.2,-0.2,-0.4l3.9,-1.2c0.1,0.2,0.3,0.4,0.5,0.6c0.1,0.2,0.3,0.3,0.5,0.5c0.2,0.2,0.5,0.4,0.7,0.6c0,0,0.1,0,0.1,0l0.2,0l6.4,0l0.2,0l0.1,0c0.1,-0.1,0.3,-0.2,0.5,-0.4c0.2,-0.1,0.4,-0.3,0.6,-0.5c0.1,-0.2,0.3,-0.3,0.4,-0.5c0.1,-0.2,0.2,-0.3,0.2,-0.4l0,-2.3c0,-0.1,0,-0.3,-0.1,-0.4c-0.1,-0.1,-0.2,-0.2,-0.3,-0.2l-10.3,-2.9c-0.5,-0.1,-0.9,-0.3,-1.3,-0.6c-0.4,-0.3,-0.7,-0.6,-0.9,-1c-0.3,-0.4,-0.5,-0.8,-0.6,-1.2c-0.2,-0.5,-0.2,-0.9,-0.2,-1.4l0,-2.1c0,-0.3,0,-0.6,0.1,-1c0.1,-0.4,0.2,-0.8,0.5,-1.2c0.1,-0.1,0.3,-0.3,0.5,-0.6c0.3,-0.3,0.5,-0.6,0.8,-0.8c0.3,-0.3,0.6,-0.6,0.8,-0.8c0.3,-0.2,0.6,-0.4,0.8,-0.5c0.3,-0.2,0.7,-0.4,1.1,-0.5c0.5,-0.2,0.9,-0.2,1.3,-0.2l5.8,0c0.6,0,1.2,0.1,1.7,0.3c0.4,0.2,0.9,0.5,1.3,0.8c0.4,0.4,0.8,0.7,1.1,1.1c0.4,0.4,0.6,0.8,0.9,1.1c0.2,0.3,0.3,0.5,0.4,0.7c0.1,0.2,0.2,0.5,0.4,0.8l-4,1.1c-0.2,-0.3,-0.3,-0.5,-0.5,-0.8c-0.2,-0.2,-0.4,-0.4,-0.6,-0.6c-0.2,-0.2,-0.4,-0.4,-0.6,-0.6l-0.1,0l-0.1,0l-5.6,0l-0.1,0l-0.1,0c-0.1,0.1,-0.3,0.2,-0.5,0.4c-0.2,0.1,-0.4,0.3,-0.6,0.5c-0.2,0.1,-0.3,0.3,-0.4,0.5c-0.1,0.1,-0.2,0.2,-0.2,0.3l0,1.9c0,0.2,0.1,0.4,0.2,0.5c0,0.1,0.1,0.2,0.2,0.2l10.3,2.9c0.5,0.2,0.9,0.4,1.3,0.7c0.4,0.3,0.7,0.6,1,1c0.2,0.4,0.4,0.8,0.5,1.2c0.2,0.5,0.2,0.9,0.2,1.3Z" class="g3_1" />
<path d="M711.5,316.2c0,-0.1,0,-0.1,0,-0.1c0,-0.1,0,-0.1,0,-0.1l0,-2.8c0,-0.1,0,-0.1,0,-0.1l0,-0.1c-0.1,-0.2,-0.2,-0.3,-0.3,-0.5c-0.2,-0.1,-0.3,-0.3,-0.4,-0.4c-0.2,-0.1,-0.3,-0.3,-0.4,-0.3c-0.1,-0.1,-0.3,-0.2,-0.3,-0.2l-6.9,0l0,5.9l6.9,0c0.1,0,0.2,0,0.3,-0.1c0.1,-0.1,0.3,-0.2,0.4,-0.3c0.2,-0.1,0.3,-0.3,0.4,-0.4c0.1,-0.2,0.2,-0.3,0.3,-0.5m0,-9.7c0,0,0,-0.1,0,-0.1c0,0,0,-0.1,0,-0.1l0,-2.8c0,0,0,-0.1,0,-0.1c0,-0.1,0,-0.1,0,-0.1c-0.1,-0.2,-0.2,-0.3,-0.3,-0.5c-0.2,-0.2,-0.3,-0.3,-0.4,-0.4c-0.2,-0.2,-0.3,-0.3,-0.4,-0.4c-0.1,0,-0.3,-0.1,-0.3,-0.1l-6.9,0l0,5.9l6.9,0c0.1,0,0.2,0,0.3,-0.1c0.1,-0.1,0.3,-0.2,0.4,-0.3c0.2,-0.1,0.3,-0.3,0.4,-0.4c0.1,-0.2,0.2,-0.3,0.3,-0.5m4.2,9.6c0,0.4,-0.1,0.8,-0.2,1.2c-0.1,0.4,-0.3,0.8,-0.5,1.2c-0.1,0.1,-0.2,0.2,-0.4,0.4c-0.2,0.2,-0.4,0.4,-0.6,0.7c-0.2,0.2,-0.4,0.4,-0.6,0.6c-0.2,0.1,-0.3,0.3,-0.5,0.4c-0.4,0.3,-0.8,0.5,-1.3,0.6c-0.5,0.2,-1,0.2,-1.5,0.2l-11,0l0,-23.4l11,0c0.5,0,1,0.1,1.5,0.2c0.5,0.2,0.9,0.4,1.3,0.7c0.2,0.1,0.3,0.2,0.5,0.4c0.2,0.2,0.4,0.4,0.6,0.6c0.2,0.2,0.4,0.4,0.6,0.6c0.2,0.2,0.3,0.4,0.4,0.5c0.3,0.4,0.4,0.8,0.5,1.2c0.1,0.4,0.2,0.8,0.2,1.2l0,3c0,0.4,-0.1,0.7,-0.2,1.1c0,0.3,-0.1,0.6,-0.3,0.8c-0.1,0.3,-0.3,0.6,-0.4,0.8c-0.2,0.2,-0.4,0.4,-0.7,0.7c0.3,0.2,0.5,0.4,0.7,0.6c0.1,0.3,0.3,0.5,0.4,0.8c0.2,0.2,0.3,0.5,0.3,0.8c0.1,0.4,0.2,0.7,0.2,1.1Z" class="g3_1" />
<path d="M731.8,303.4l0,-0.1c0,0,0,-0.1,-0.1,-0.1c0,-0.1,-0.1,-0.3,-0.2,-0.4c-0.1,-0.1,-0.2,-0.3,-0.3,-0.4c-0.1,-0.1,-0.3,-0.2,-0.4,-0.3c-0.1,-0.1,-0.2,-0.2,-0.3,-0.2l-7.1,0l0,6.4l6.9,0c0.1,0,0.2,-0.1,0.3,-0.2c0.2,0,0.3,-0.1,0.4,-0.3c0.2,-0.1,0.3,-0.2,0.4,-0.4c0.2,-0.1,0.3,-0.3,0.3,-0.4l0.1,-0.1c0,0,0,-0.1,0,-0.1Zm4.1,3.5c0,0.8,-0.2,1.6,-0.7,2.3c-0.1,0.2,-0.2,0.3,-0.4,0.5c-0.2,0.2,-0.4,0.4,-0.6,0.6c-0.2,0.2,-0.4,0.4,-0.6,0.6c-0.2,0.2,-0.4,0.3,-0.5,0.4c-0.3,0.3,-0.7,0.5,-1,0.6l4.6,9.5l-4.4,0l-4.4,-9.2l-4.5,0l0,9.2l-4.1,0l0,-23.4l11,0c0.5,0,1,0.1,1.5,0.2c0.4,0.2,0.9,0.4,1.3,0.6c0.1,0.1,0.3,0.3,0.5,0.5c0.2,0.2,0.4,0.4,0.6,0.6c0.2,0.2,0.4,0.4,0.6,0.6c0.2,0.2,0.3,0.4,0.4,0.5c0.2,0.4,0.4,0.8,0.5,1.2c0.1,0.4,0.2,0.8,0.2,1.2Z" class="g3_1" />
<path d="M739,321l0,-24l15,0l0,4l-11,0l0,6l10,0l0,4l-10,0l0,6l11,0l0,4Z" class="g3_1" />
<path d="M766.2,303.3l-3.1,9.2l6.3,0Zm6.2,18.1l-1.7,-4.9l-8.9,0l-1.8,4.9l-4.4,0L763.8,298l4.8,0l8.2,23.4Z" class="g3_1" />
<path d="M791.7,321.4l-7.3,-9.8l-1.2,0l0,9.8l-4.1,0l0,-23.4l4.1,0l0,9.8l1.2,0l7.3,-9.8l5.1,0l-9,11.7l9,11.7Z" class="g3_1" />
<path d="M799,297l4,0l0,24l-4,0l0,-24Z" class="g3_1" />
<path d="M819.9,321.4l-8.2,-15.5l0,15.5l-4.1,0l0,-23.4l4.5,0l8,15.8l0,-15.8l4.1,0l0,23.4Z" class="g3_1" />
<path d="M832.4,315.7c0,0.1,0.1,0.3,0.2,0.5c0.1,0.1,0.3,0.3,0.5,0.5c0.2,0.2,0.4,0.3,0.6,0.5c0.2,0.1,0.4,0.2,0.5,0.3l0.1,0l0.1,0l5.3,0l0.2,0c0.2,-0.1,0.3,-0.2,0.5,-0.4c0.2,-0.1,0.4,-0.3,0.6,-0.5c0.2,-0.2,0.4,-0.4,0.5,-0.6c0.2,-0.2,0.2,-0.3,0.2,-0.4l0,-3.8l-5,0l0,-3.9l9.2,0l0,7.9c0,0.5,0.1,1.1,0.2,1.7c0,0.5,0.1,1.1,0.2,1.8c0.1,0.7,0.2,1.4,0.3,2.1l-4,0l-0.2,-0.9c-0.2,0.1,-0.3,0.2,-0.5,0.3c-0.2,0.1,-0.4,0.2,-0.6,0.3c-0.2,0.1,-0.5,0.2,-0.7,0.3c-0.2,0,-0.4,0.1,-0.7,0.1l-5.7,0c-0.4,0,-0.9,-0.1,-1.3,-0.2c-0.4,-0.2,-0.8,-0.3,-1.1,-0.5c-0.2,-0.1,-0.5,-0.3,-0.8,-0.6c-0.2,-0.2,-0.5,-0.4,-0.8,-0.7c-0.3,-0.3,-0.5,-0.5,-0.8,-0.8c-0.2,-0.2,-0.4,-0.5,-0.5,-0.6c-0.2,-0.4,-0.4,-0.8,-0.5,-1.1c-0.1,-0.4,-0.1,-0.8,-0.1,-1.2l0,-12.2c0,-0.4,0,-0.7,0.1,-1.1c0.1,-0.4,0.3,-0.7,0.5,-1.1c0.1,-0.2,0.3,-0.4,0.5,-0.6c0.3,-0.3,0.5,-0.6,0.8,-0.9c0.3,-0.2,0.6,-0.5,0.8,-0.7c0.3,-0.3,0.6,-0.5,0.8,-0.6c0.3,-0.2,0.7,-0.3,1.1,-0.5c0.4,-0.1,0.9,-0.1,1.3,-0.1l5.7,0c0.6,0,1.1,0.1,1.6,0.3c0.5,0.2,1,0.4,1.4,0.7c0.4,0.3,0.8,0.7,1.1,1.1c0.4,0.4,0.7,0.7,0.9,1.1c0.2,0.2,0.3,0.4,0.5,0.6c0.1,0.3,0.2,0.5,0.3,0.7l-3.9,1.2c-0.2,-0.3,-0.4,-0.5,-0.6,-0.7c-0.1,-0.2,-0.3,-0.3,-0.6,-0.5c-0.2,-0.2,-0.4,-0.4,-0.7,-0.6l-0.1,0l-0.1,0l-5.3,0l-0.1,0l-0.1,0c-0.1,0.1,-0.2,0.1,-0.4,0.2c-0.1,0.2,-0.3,0.3,-0.5,0.4c-0.1,0.2,-0.3,0.3,-0.4,0.5c-0.2,0.2,-0.3,0.4,-0.5,0.5c0,0.1,0,0.1,0,0.2Z" class="g3_1" />


<!-- Any embedded fonts defined here -->
<style type="text/css" ><![CDATA[

@font-face {
	font-family: DINNextLTW04-Regular_2j;
	src: url("fonts/DINNextLTW04-Regular_2j.woff") format("woff");
}

@font-face {
	font-family: DINNextLTW04-Regular_24;
	src: url("fonts/DINNextLTW04-Regular_24.woff") format("woff");
}

]]></style>

</svg>
